<?xml version="1.0" encoding="utf-8"?>
<svg xmlns="http://www.w3.org/2000/svg" xmlns:xlink="http://www.w3.org/1999/xlink" width="1000" height="900" viewBox="0 0 4000 3600">
<defs>
  <clipPath id="clip980">
    <rect x="0" y="0" width="4000" height="3600"/>
  </clipPath>
</defs>
<path clip-path="url(#clip980)" d="M0 3600 L4000 3600 L4000 0 L0 0  Z" fill="#ffffff" fill-rule="evenodd" fill-opacity="1"/>
<defs>
  <clipPath id="clip981">
    <rect x="800" y="0" width="2801" height="2801"/>
  </clipPath>
</defs>
<path clip-path="url(#clip980)" d="M548.802 885.774 L1941.34 885.774 L1941.34 47.2441 L548.802 47.2441  Z" fill="#ffffff" fill-rule="evenodd" fill-opacity="1"/>
<defs>
  <clipPath id="clip982">
    <rect x="548" y="47" width="1394" height="840"/>
  </clipPath>
</defs>
<polyline clip-path="url(#clip982)" style="stroke:#000000; stroke-linecap:round; stroke-linejoin:round; stroke-width:2; stroke-opacity:0.1; fill:none" points="581.612,885.774 581.612,47.2441 "/>
<polyline clip-path="url(#clip982)" style="stroke:#000000; stroke-linecap:round; stroke-linejoin:round; stroke-width:2; stroke-opacity:0.1; fill:none" points="911.69,885.774 911.69,47.2441 "/>
<polyline clip-path="url(#clip982)" style="stroke:#000000; stroke-linecap:round; stroke-linejoin:round; stroke-width:2; stroke-opacity:0.1; fill:none" points="1241.77,885.774 1241.77,47.2441 "/>
<polyline clip-path="url(#clip982)" style="stroke:#000000; stroke-linecap:round; stroke-linejoin:round; stroke-width:2; stroke-opacity:0.1; fill:none" points="1571.85,885.774 1571.85,47.2441 "/>
<polyline clip-path="url(#clip982)" style="stroke:#000000; stroke-linecap:round; stroke-linejoin:round; stroke-width:2; stroke-opacity:0.1; fill:none" points="1901.92,885.774 1901.92,47.2441 "/>
<polyline clip-path="url(#clip982)" style="stroke:#000000; stroke-linecap:round; stroke-linejoin:round; stroke-width:2; stroke-opacity:0.1; fill:none" points="548.802,823.356 1941.34,823.356 "/>
<polyline clip-path="url(#clip982)" style="stroke:#000000; stroke-linecap:round; stroke-linejoin:round; stroke-width:2; stroke-opacity:0.1; fill:none" points="548.802,600.546 1941.34,600.546 "/>
<polyline clip-path="url(#clip982)" style="stroke:#000000; stroke-linecap:round; stroke-linejoin:round; stroke-width:2; stroke-opacity:0.1; fill:none" points="548.802,377.735 1941.34,377.735 "/>
<polyline clip-path="url(#clip982)" style="stroke:#000000; stroke-linecap:round; stroke-linejoin:round; stroke-width:2; stroke-opacity:0.1; fill:none" points="548.802,154.925 1941.34,154.925 "/>
<polyline clip-path="url(#clip980)" style="stroke:#000000; stroke-linecap:round; stroke-linejoin:round; stroke-width:4; stroke-opacity:1; fill:none" points="548.802,885.774 1941.34,885.774 "/>
<polyline clip-path="url(#clip980)" style="stroke:#000000; stroke-linecap:round; stroke-linejoin:round; stroke-width:4; stroke-opacity:1; fill:none" points="581.612,885.774 581.612,866.876 "/>
<polyline clip-path="url(#clip980)" style="stroke:#000000; stroke-linecap:round; stroke-linejoin:round; stroke-width:4; stroke-opacity:1; fill:none" points="911.69,885.774 911.69,866.876 "/>
<polyline clip-path="url(#clip980)" style="stroke:#000000; stroke-linecap:round; stroke-linejoin:round; stroke-width:4; stroke-opacity:1; fill:none" points="1241.77,885.774 1241.77,866.876 "/>
<polyline clip-path="url(#clip980)" style="stroke:#000000; stroke-linecap:round; stroke-linejoin:round; stroke-width:4; stroke-opacity:1; fill:none" points="1571.85,885.774 1571.85,866.876 "/>
<polyline clip-path="url(#clip980)" style="stroke:#000000; stroke-linecap:round; stroke-linejoin:round; stroke-width:4; stroke-opacity:1; fill:none" points="1901.92,885.774 1901.92,866.876 "/>
<g clip-path="url(#clip980)">
<text style="fill:#000000; fill-opacity:1; font-family:Times New Roman,TimesNewRoman,Times,Baskerville,Georgia,serif; font-size:104px; text-anchor:middle;" transform="rotate(0, 581.612, 1004.43)" x="581.612" y="1004.43">0</text>
</g>
<g clip-path="url(#clip980)">
<text style="fill:#000000; fill-opacity:1; font-family:Times New Roman,TimesNewRoman,Times,Baskerville,Georgia,serif; font-size:104px; text-anchor:middle;" transform="rotate(0, 911.69, 1004.43)" x="911.69" y="1004.43">50</text>
</g>
<g clip-path="url(#clip980)">
<text style="fill:#000000; fill-opacity:1; font-family:Times New Roman,TimesNewRoman,Times,Baskerville,Georgia,serif; font-size:104px; text-anchor:middle;" transform="rotate(0, 1241.77, 1004.43)" x="1241.77" y="1004.43">100</text>
</g>
<g clip-path="url(#clip980)">
<text style="fill:#000000; fill-opacity:1; font-family:Times New Roman,TimesNewRoman,Times,Baskerville,Georgia,serif; font-size:104px; text-anchor:middle;" transform="rotate(0, 1571.85, 1004.43)" x="1571.85" y="1004.43">150</text>
</g>
<g clip-path="url(#clip980)">
<text style="fill:#000000; fill-opacity:1; font-family:Times New Roman,TimesNewRoman,Times,Baskerville,Georgia,serif; font-size:104px; text-anchor:middle;" transform="rotate(0, 1901.92, 1004.43)" x="1901.92" y="1004.43">200</text>
</g>
<g clip-path="url(#clip980)">
<text style="fill:#000000; fill-opacity:1; font-family:Times New Roman,TimesNewRoman,Times,Baskerville,Georgia,serif; font-size:118px; text-anchor:middle;" transform="rotate(0, 1245.07, 1151.82)" x="1245.07" y="1151.82">Iteration</text>
</g>
<polyline clip-path="url(#clip980)" style="stroke:#000000; stroke-linecap:round; stroke-linejoin:round; stroke-width:4; stroke-opacity:1; fill:none" points="548.802,885.774 548.802,47.2441 "/>
<polyline clip-path="url(#clip980)" style="stroke:#000000; stroke-linecap:round; stroke-linejoin:round; stroke-width:4; stroke-opacity:1; fill:none" points="548.802,823.356 567.699,823.356 "/>
<polyline clip-path="url(#clip980)" style="stroke:#000000; stroke-linecap:round; stroke-linejoin:round; stroke-width:4; stroke-opacity:1; fill:none" points="548.802,600.546 567.699,600.546 "/>
<polyline clip-path="url(#clip980)" style="stroke:#000000; stroke-linecap:round; stroke-linejoin:round; stroke-width:4; stroke-opacity:1; fill:none" points="548.802,377.735 567.699,377.735 "/>
<polyline clip-path="url(#clip980)" style="stroke:#000000; stroke-linecap:round; stroke-linejoin:round; stroke-width:4; stroke-opacity:1; fill:none" points="548.802,154.925 567.699,154.925 "/>
<g clip-path="url(#clip980)">
<text style="fill:#000000; fill-opacity:1; font-family:Times New Roman,TimesNewRoman,Times,Baskerville,Georgia,serif; font-size:104px; text-anchor:middle;" transform="rotate(0, 423.545, 857.856)" x="423.545" y="857.856">0.2</text>
</g>
<g clip-path="url(#clip980)">
<text style="fill:#000000; fill-opacity:1; font-family:Times New Roman,TimesNewRoman,Times,Baskerville,Georgia,serif; font-size:104px; text-anchor:middle;" transform="rotate(0, 423.545, 635.046)" x="423.545" y="635.046">0.3</text>
</g>
<g clip-path="url(#clip980)">
<text style="fill:#000000; fill-opacity:1; font-family:Times New Roman,TimesNewRoman,Times,Baskerville,Georgia,serif; font-size:104px; text-anchor:middle;" transform="rotate(0, 423.545, 412.235)" x="423.545" y="412.235">0.4</text>
</g>
<g clip-path="url(#clip980)">
<text style="fill:#000000; fill-opacity:1; font-family:Times New Roman,TimesNewRoman,Times,Baskerville,Georgia,serif; font-size:104px; text-anchor:middle;" transform="rotate(0, 423.545, 189.425)" x="423.545" y="189.425">0.5</text>
</g>
<g clip-path="url(#clip980)">
<text style="fill:#000000; fill-opacity:1; font-family:Times New Roman,TimesNewRoman,Times,Baskerville,Georgia,serif; font-size:118px; text-anchor:middle;" transform="rotate(-90, 274.543, 466.509)" x="274.543" y="466.509">Loss</text>
</g>
<polyline clip-path="url(#clip982)" style="stroke:#009af9; stroke-linecap:round; stroke-linejoin:round; stroke-width:8; stroke-opacity:1; fill:none" points="588.213,444.185 594.815,470.035 601.416,468.842 608.018,479.285 614.619,491.634 621.221,500.942 627.823,506.731 634.424,510.914 641.026,516.585 647.627,523.39 654.229,529.737 660.83,534.701 667.432,538.512 674.033,542.088 680.635,546.204 687.237,550.977 693.838,555.838 700.44,560.136 707.041,563.812 713.643,567.189 720.244,570.598 726.846,574.193 733.448,577.911 740.049,581.539 746.651,584.93 753.252,588.109 759.854,591.171 766.455,594.248 773.057,597.426 779.659,600.709 786.26,604.002 792.862,607.158 799.463,610.064 806.065,612.807 812.666,615.583 819.268,618.474 825.869,621.393 832.471,624.195 839.073,626.817 845.674,629.33 852.276,631.858 858.877,634.455 865.479,637.063 872.08,639.591 878.682,642.004 885.284,644.334 891.885,646.641 898.487,648.956 905.088,651.268 911.69,653.542 918.291,655.76 924.893,657.925 931.495,660.061 938.096,662.193 944.698,664.319 951.299,666.418 957.901,668.474 964.502,670.487 971.104,672.474 977.705,674.451 984.307,676.418 990.909,678.359 997.51,680.264 1004.11,682.131 1010.71,683.974 1017.31,685.803 1023.92,687.615 1030.52,689.4 1037.12,691.152 1043.72,692.873 1050.32,694.573 1056.92,696.255 1063.53,697.917 1070.13,699.554 1076.73,701.168 1083.33,702.762 1089.93,704.339 1096.53,705.899 1103.14,707.44 1109.74,708.959 1116.34,710.46 1122.94,711.945 1129.54,713.418 1136.14,714.875 1142.74,716.316 1149.35,717.741 1155.95,719.151 1162.55,720.548 1169.15,721.932 1175.75,723.301 1182.35,724.657 1188.96,726.001 1195.56,727.334 1202.16,728.655 1208.76,729.963 1215.36,731.26 1221.96,732.546 1228.56,733.823 1235.17,735.089 1241.77,736.345 1248.37,737.592 1254.97,738.83 1261.57,740.059 1268.17,741.279 1274.78,742.491 1281.38,743.695 1287.98,744.891 1294.58,746.08 1301.18,747.261 1307.78,748.435 1314.39,749.602 1320.99,750.762 1327.59,751.916 1334.19,753.064 1340.79,754.205 1347.39,755.34 1353.99,756.469 1360.6,757.593 1367.2,758.71 1373.8,759.822 1380.4,760.928 1387,762.029 1393.6,763.124 1400.21,764.213 1406.81,765.297 1413.41,766.374 1420.01,767.446 1426.61,768.511 1433.21,769.571 1439.82,770.624 1446.42,771.671 1453.02,772.711 1459.62,773.744 1466.22,774.77 1472.82,775.789 1479.42,776.801 1486.03,777.805 1492.63,778.801 1499.23,779.789 1505.83,780.77 1512.43,781.742 1519.03,782.706 1525.64,783.661 1532.24,784.608 1538.84,785.546 1545.44,786.475 1552.04,787.395 1558.64,788.307 1565.24,789.21 1571.85,790.104 1578.45,790.987 1585.05,791.863 1591.65,792.731 1598.25,793.588 1604.85,794.437 1611.46,795.278 1618.06,796.11 1624.66,796.933 1631.26,797.748 1637.86,798.554 1644.46,799.352 1651.07,800.143 1657.67,800.924 1664.27,801.698 1670.87,802.466 1677.47,803.225 1684.07,803.976 1690.67,804.721 1697.28,805.459 1703.88,806.19 1710.48,806.913 1717.08,807.63 1723.68,808.341 1730.28,809.047 1736.89,809.745 1743.49,810.437 1750.09,811.123 1756.69,811.805 1763.29,812.481 1769.89,813.152 1776.49,813.816 1783.1,814.477 1789.7,815.132 1796.3,815.782 1802.9,816.428 1809.5,817.069 1816.1,817.707 1822.71,818.339 1829.31,818.967 1835.91,819.593 1842.51,820.213 1849.11,820.831 1855.71,821.444 1862.32,822.054 1868.92,822.661 1875.52,823.265 1882.12,823.865 1888.72,824.462 1895.32,825.057 1901.92,825.649 "/>
<polyline clip-path="url(#clip982)" style="stroke:#e26f46; stroke-linecap:round; stroke-linejoin:round; stroke-width:8; stroke-opacity:1; fill:none" points="588.213,315.212 594.815,451.787 601.416,489.964 608.018,510.584 614.619,518.894 621.221,518.531 627.823,511.21 634.424,508.761 641.026,520.857 647.627,543.651 654.229,570.079 660.83,594.384 667.432,613.659 674.033,627.469 680.635,636.484 687.237,641.349 693.838,642.646 700.44,641.597 707.041,640.07 713.643,640.028 720.244,642.793 726.846,648.629 733.448,656.864 740.049,666.302 746.651,675.67 753.252,683.936 759.854,690.429 766.455,694.809 773.057,696.984 779.659,697.047 786.26,695.31 792.862,692.45 799.463,689.644 806.065,688.333 812.666,689.535 819.268,693.355 825.869,699.038 832.471,705.372 839.073,711.136 845.674,715.432 852.276,717.825 858.877,718.315 865.479,717.263 872.08,715.306 878.682,713.235 885.284,711.796 891.885,711.506 898.487,712.527 905.088,714.656 911.69,717.42 918.291,720.229 924.893,722.546 931.495,724.004 938.096,724.456 944.698,723.992 951.299,722.899 957.901,721.612 964.502,720.603 971.104,720.272 977.705,720.825 984.307,722.217 990.909,724.178 997.51,726.305 1004.11,728.186 1010.71,729.515 1017.31,730.163 1023.92,730.202 1030.52,729.876 1037.12,729.531 1043.72,729.504 1050.32,730.024 1056.92,731.13 1063.53,732.674 1070.13,734.38 1076.73,735.943 1083.33,737.126 1089.93,737.823 1096.53,738.08 1103.14,738.071 1109.74,738.036 1116.34,738.202 1122.94,738.707 1129.54,739.562 1136.14,740.65 1142.74,741.781 1149.35,742.758 1155.95,743.448 1162.55,743.824 1169.15,743.966 1175.75,744.037 1182.35,744.217 1188.96,744.642 1195.56,745.354 1202.16,746.294 1208.76,747.327 1215.36,748.305 1221.96,749.117 1228.56,749.733 1235.17,750.208 1241.77,750.659 1248.37,751.21 1254.97,751.948 1261.57,752.884 1268.17,753.959 1274.78,755.067 1281.38,756.105 1287.98,757.013 1294.58,757.794 1301.18,758.51 1307.78,759.248 1314.39,760.085 1320.99,761.051 1327.59,762.122 1334.19,763.231 1340.79,764.301 1347.39,765.278 1353.99,766.153 1360.6,766.96 1367.2,767.759 1373.8,768.607 1380.4,769.532 1387,770.521 1393.6,771.528 1400.21,772.502 1406.81,773.405 1413.41,774.233 1420.01,775.013 1426.61,775.789 1433.21,776.597 1439.82,777.451 1446.42,778.334 1453.02,779.209 1459.62,780.039 1466.22,780.806 1472.82,781.516 1479.42,782.195 1486.03,782.875 1492.63,783.576 1499.23,784.295 1505.83,785.011 1512.43,785.697 1519.03,786.335 1525.64,786.923 1532.24,787.48 1538.84,788.027 1545.44,788.582 1552.04,789.144 1558.64,789.701 1565.24,790.229 1571.85,790.716 1578.45,791.162 1585.05,791.58 1591.65,791.992 1598.25,792.41 1604.85,792.832 1611.46,793.245 1618.06,793.632 1624.66,793.986 1631.26,794.315 1637.86,794.633 1644.46,794.956 1651.07,795.283 1657.67,795.607 1664.27,795.916 1670.87,796.203 1677.47,796.472 1684.07,796.734 1690.67,796.998 1697.28,797.267 1703.88,797.533 1710.48,797.787 1717.08,798.028 1723.68,798.259 1730.28,798.488 1736.89,798.721 1743.49,798.958 1750.09,799.195 1756.69,799.425 1763.29,799.641 1769.89,799.846 1776.49,800.044 1783.1,800.246 1789.7,800.455 1796.3,800.666 1802.9,800.872 1809.5,801.067 1816.1,801.249 1822.71,801.424 1829.31,801.601 1835.91,801.784 1842.51,801.97 1849.11,802.153 1855.71,802.327 1862.32,802.488 1868.92,802.642 1875.52,802.795 1882.12,802.952 1888.72,803.11 1895.32,803.263 1901.92,803.406 "/>
<polyline clip-path="url(#clip982)" style="stroke:#3da44d; stroke-linecap:round; stroke-linejoin:round; stroke-width:8; stroke-opacity:1; fill:none" points="588.213,446.025 594.815,474.981 601.416,496.627 608.018,513.714 614.619,527.71 621.221,539.504 627.823,549.738 634.424,558.712 641.026,566.458 647.627,573.591 654.229,579.686 660.83,585.078 667.432,590.049 674.033,594.865 680.635,599.838 687.237,605.125 693.838,610.549 700.44,615.616 707.041,620.177 713.643,624.178 720.244,627.715 726.846,630.987 733.448,634.272 740.049,637.781 746.651,641.06 753.252,644.594 759.854,648.315 766.455,651.617 773.057,654.5 779.659,657.293 786.26,660.312 792.862,663.513 799.463,666.72 806.065,669.906 812.666,673.061 819.268,676.082 825.869,678.858 832.471,681.442 839.073,684.017 845.674,686.748 852.276,689.54 858.877,692.229 865.479,694.738 872.08,697.182 878.682,699.636 885.284,702.056 891.885,704.45 898.487,706.864 905.088,709.226 911.69,711.434 918.291,713.573 924.893,715.693 931.495,717.904 938.096,720.166 944.698,722.399 951.299,724.499 957.901,726.524 964.502,728.507 971.104,730.506 977.705,732.506 984.307,734.475 990.909,736.354 997.51,738.175 1004.11,740.057 1010.71,741.943 1017.31,743.753 1023.92,745.496 1030.52,747.192 1037.12,748.881 1043.72,750.538 1050.32,752.176 1056.92,753.765 1063.53,755.296 1070.13,756.803 1076.73,758.32 1083.33,759.826 1089.93,761.271 1096.53,762.675 1103.14,764.073 1109.74,765.441 1116.34,766.788 1122.94,768.118 1129.54,769.458 1136.14,770.802 1142.74,772.137 1149.35,773.453 1155.95,774.75 1162.55,776.041 1169.15,777.333 1175.75,778.617 1182.35,779.9 1188.96,781.17 1195.56,782.437 1202.16,783.64 1208.76,784.818 1215.36,785.987 1221.96,787.145 1228.56,788.29 1235.17,789.417 1241.77,790.531 1248.37,791.649 1254.97,792.758 1261.57,793.855 1268.17,794.94 1274.78,796.021 1281.38,797.085 1287.98,798.113 1294.58,799.107 1301.18,800.117 1307.78,801.124 1314.39,802.108 1320.99,803.074 1327.59,804.048 1334.19,805.035 1340.79,805.983 1347.39,806.922 1353.99,807.859 1360.6,808.784 1367.2,809.689 1373.8,810.582 1380.4,811.482 1387,812.367 1393.6,813.237 1400.21,814.11 1406.81,814.964 1413.41,815.814 1420.01,816.671 1426.61,817.534 1433.21,818.387 1439.82,819.227 1446.42,820.052 1453.02,820.866 1459.62,821.666 1466.22,822.465 1472.82,823.252 1479.42,824.03 1486.03,824.796 1492.63,825.54 1499.23,826.268 1505.83,826.993 1512.43,827.707 1519.03,828.417 1525.64,829.114 1532.24,829.804 1538.84,830.494 1545.44,831.17 1552.04,831.834 1558.64,832.505 1565.24,833.174 1571.85,833.839 1578.45,834.502 1585.05,835.165 1591.65,835.837 1598.25,836.496 1604.85,837.145 1611.46,837.802 1618.06,838.47 1624.66,839.134 1631.26,839.804 1637.86,840.46 1644.46,841.106 1651.07,841.747 1657.67,842.367 1664.27,842.99 1670.87,843.58 1677.47,844.162 1684.07,844.74 1690.67,845.308 1697.28,845.876 1703.88,846.441 1710.48,847.002 1717.08,847.578 1723.68,848.137 1730.28,848.697 1736.89,849.248 1743.49,849.826 1750.09,850.406 1756.69,850.977 1763.29,851.555 1769.89,852.136 1776.49,852.684 1783.1,853.195 1789.7,853.706 1796.3,854.217 1802.9,854.705 1809.5,855.187 1816.1,855.682 1822.71,856.185 1829.31,856.672 1835.91,857.163 1842.51,857.666 1849.11,858.169 1855.71,858.654 1862.32,859.129 1868.92,859.61 1875.52,860.076 1882.12,860.546 1888.72,861.041 1895.32,861.545 1901.92,862.042 "/>
<polyline clip-path="url(#clip982)" style="stroke:#c271d2; stroke-linecap:round; stroke-linejoin:round; stroke-width:8; stroke-opacity:1; fill:none" points="588.213,70.9761 594.815,189.85 601.416,268.066 608.018,323.556 614.619,363.861 621.221,392.219 627.823,411.355 634.424,422.969 641.026,427.739 647.627,427.696 654.229,425.596 660.83,423.279 667.432,420.939 674.033,419.37 680.635,418.807 687.237,419.482 693.838,421.283 700.44,423.556 707.041,425.829 713.643,427.185 720.244,426.996 726.846,425.007 733.448,422.23 740.049,417.894 746.651,411.429 753.252,403.726 759.854,394.513 766.455,385.618 773.057,378.944 779.659,374.863 786.26,374.537 792.862,377.672 799.463,384.104 806.065,393.359 812.666,404.434 819.268,415.716 825.869,425.524 832.471,433.021 839.073,437.776 845.674,439.771 852.276,439.27 858.877,436.936 865.479,433.662 872.08,430.996 878.682,430.457 885.284,432.486 891.885,436.882 898.487,443.265 905.088,450.479 911.69,457.955 918.291,464.13 924.893,468.497 931.495,470.781 938.096,471.294 944.698,470.436 951.299,469.256 957.901,469.218 964.502,470.868 971.104,474.019 977.705,477.958 984.307,481.822 990.909,485.353 997.51,488.386 1004.11,490.347 1010.71,491.107 1017.31,491.11 1023.92,490.49 1030.52,490.414 1037.12,491.564 1043.72,494.142 1050.32,498.097 1056.92,502.542 1063.53,506.482 1070.13,509.021 1076.73,510.135 1083.33,510.087 1089.93,509.282 1096.53,508.912 1103.14,509.497 1109.74,510.808 1116.34,512.403 1122.94,513.853 1129.54,514.854 1136.14,514.732 1142.74,513.632 1149.35,512.153 1155.95,510.769 1162.55,509.964 1169.15,509.762 1175.75,509.578 1182.35,509.539 1188.96,509.17 1195.56,508.141 1202.16,507.116 1208.76,507.056 1215.36,508.003 1221.96,509.615 1228.56,511.187 1235.17,512.376 1241.77,512.792 1248.37,512.54 1254.97,511.314 1261.57,509.785 1268.17,508.936 1274.78,509.484 1281.38,511.579 1287.98,514.061 1294.58,515.345 1301.18,515.061 1307.78,513.288 1314.39,511.002 1320.99,509.653 1327.59,509.915 1334.19,511.231 1340.79,512.616 1347.39,513.295 1353.99,513.098 1360.6,512.27 1367.2,511.955 1373.8,512.03 1380.4,512.596 1387,513.066 1393.6,513.333 1400.21,512.656 1406.81,510.697 1413.41,509.441 1420.01,508.391 1426.61,507.922 1433.21,507.781 1439.82,508.176 1446.42,508.331 1453.02,508.352 1459.62,508.458 1466.22,509.492 1472.82,510.317 1479.42,510.097 1486.03,508.511 1492.63,506.545 1499.23,505.422 1505.83,505.399 1512.43,506.025 1519.03,506.318 1525.64,506.243 1532.24,505.93 1538.84,505.756 1545.44,505.606 1552.04,505.084 1558.64,504.241 1565.24,503.986 1571.85,504.032 1578.45,503.719 1585.05,502.576 1591.65,500.609 1598.25,498.797 1604.85,497.866 1611.46,498.226 1618.06,499.169 1624.66,500.242 1631.26,500.288 1637.86,499.8 1644.46,499.804 1651.07,501.258 1657.67,501.778 1664.27,500.778 1670.87,499.805 1677.47,500.332 1684.07,501.393 1690.67,502.425 1697.28,502.148 1703.88,501.573 1710.48,500.739 1717.08,501.893 1723.68,503.524 1730.28,503.746 1736.89,503.671 1743.49,502.526 1750.09,501.105 1756.69,501.171 1763.29,502.352 1769.89,503.178 1776.49,504.224 1783.1,505.307 1789.7,506.043 1796.3,505.479 1802.9,504.756 1809.5,504.266 1816.1,504.298 1822.71,505.621 1829.31,506.338 1835.91,506.107 1842.51,505.945 1849.11,505.614 1855.71,504.697 1862.32,503.759 1868.92,503.425 1875.52,504.202 1882.12,504.582 1888.72,503.549 1895.32,501.529 1901.92,500.157 "/>
<path clip-path="url(#clip980)" d="M548.802 2085.77 L1941.34 2085.77 L1941.34 1247.24 L548.802 1247.24  Z" fill="#ffffff" fill-rule="evenodd" fill-opacity="1"/>
<defs>
  <clipPath id="clip983">
    <rect x="548" y="1247" width="1394" height="840"/>
  </clipPath>
</defs>
<polyline clip-path="url(#clip983)" style="stroke:#000000; stroke-linecap:round; stroke-linejoin:round; stroke-width:2; stroke-opacity:0.1; fill:none" points="581.612,2085.77 581.612,1247.24 "/>
<polyline clip-path="url(#clip983)" style="stroke:#000000; stroke-linecap:round; stroke-linejoin:round; stroke-width:2; stroke-opacity:0.1; fill:none" points="911.69,2085.77 911.69,1247.24 "/>
<polyline clip-path="url(#clip983)" style="stroke:#000000; stroke-linecap:round; stroke-linejoin:round; stroke-width:2; stroke-opacity:0.1; fill:none" points="1241.77,2085.77 1241.77,1247.24 "/>
<polyline clip-path="url(#clip983)" style="stroke:#000000; stroke-linecap:round; stroke-linejoin:round; stroke-width:2; stroke-opacity:0.1; fill:none" points="1571.85,2085.77 1571.85,1247.24 "/>
<polyline clip-path="url(#clip983)" style="stroke:#000000; stroke-linecap:round; stroke-linejoin:round; stroke-width:2; stroke-opacity:0.1; fill:none" points="1901.92,2085.77 1901.92,1247.24 "/>
<polyline clip-path="url(#clip983)" style="stroke:#000000; stroke-linecap:round; stroke-linejoin:round; stroke-width:2; stroke-opacity:0.1; fill:none" points="548.802,1992.72 1941.34,1992.72 "/>
<polyline clip-path="url(#clip983)" style="stroke:#000000; stroke-linecap:round; stroke-linejoin:round; stroke-width:2; stroke-opacity:0.1; fill:none" points="548.802,1826.25 1941.34,1826.25 "/>
<polyline clip-path="url(#clip983)" style="stroke:#000000; stroke-linecap:round; stroke-linejoin:round; stroke-width:2; stroke-opacity:0.1; fill:none" points="548.802,1659.79 1941.34,1659.79 "/>
<polyline clip-path="url(#clip983)" style="stroke:#000000; stroke-linecap:round; stroke-linejoin:round; stroke-width:2; stroke-opacity:0.1; fill:none" points="548.802,1493.32 1941.34,1493.32 "/>
<polyline clip-path="url(#clip983)" style="stroke:#000000; stroke-linecap:round; stroke-linejoin:round; stroke-width:2; stroke-opacity:0.1; fill:none" points="548.802,1326.85 1941.34,1326.85 "/>
<polyline clip-path="url(#clip980)" style="stroke:#000000; stroke-linecap:round; stroke-linejoin:round; stroke-width:4; stroke-opacity:1; fill:none" points="548.802,2085.77 1941.34,2085.77 "/>
<polyline clip-path="url(#clip980)" style="stroke:#000000; stroke-linecap:round; stroke-linejoin:round; stroke-width:4; stroke-opacity:1; fill:none" points="581.612,2085.77 581.612,2066.88 "/>
<polyline clip-path="url(#clip980)" style="stroke:#000000; stroke-linecap:round; stroke-linejoin:round; stroke-width:4; stroke-opacity:1; fill:none" points="911.69,2085.77 911.69,2066.88 "/>
<polyline clip-path="url(#clip980)" style="stroke:#000000; stroke-linecap:round; stroke-linejoin:round; stroke-width:4; stroke-opacity:1; fill:none" points="1241.77,2085.77 1241.77,2066.88 "/>
<polyline clip-path="url(#clip980)" style="stroke:#000000; stroke-linecap:round; stroke-linejoin:round; stroke-width:4; stroke-opacity:1; fill:none" points="1571.85,2085.77 1571.85,2066.88 "/>
<polyline clip-path="url(#clip980)" style="stroke:#000000; stroke-linecap:round; stroke-linejoin:round; stroke-width:4; stroke-opacity:1; fill:none" points="1901.92,2085.77 1901.92,2066.88 "/>
<g clip-path="url(#clip980)">
<text style="fill:#000000; fill-opacity:1; font-family:Times New Roman,TimesNewRoman,Times,Baskerville,Georgia,serif; font-size:104px; text-anchor:middle;" transform="rotate(0, 581.612, 2204.43)" x="581.612" y="2204.43">0</text>
</g>
<g clip-path="url(#clip980)">
<text style="fill:#000000; fill-opacity:1; font-family:Times New Roman,TimesNewRoman,Times,Baskerville,Georgia,serif; font-size:104px; text-anchor:middle;" transform="rotate(0, 911.69, 2204.43)" x="911.69" y="2204.43">50</text>
</g>
<g clip-path="url(#clip980)">
<text style="fill:#000000; fill-opacity:1; font-family:Times New Roman,TimesNewRoman,Times,Baskerville,Georgia,serif; font-size:104px; text-anchor:middle;" transform="rotate(0, 1241.77, 2204.43)" x="1241.77" y="2204.43">100</text>
</g>
<g clip-path="url(#clip980)">
<text style="fill:#000000; fill-opacity:1; font-family:Times New Roman,TimesNewRoman,Times,Baskerville,Georgia,serif; font-size:104px; text-anchor:middle;" transform="rotate(0, 1571.85, 2204.43)" x="1571.85" y="2204.43">150</text>
</g>
<g clip-path="url(#clip980)">
<text style="fill:#000000; fill-opacity:1; font-family:Times New Roman,TimesNewRoman,Times,Baskerville,Georgia,serif; font-size:104px; text-anchor:middle;" transform="rotate(0, 1901.92, 2204.43)" x="1901.92" y="2204.43">200</text>
</g>
<g clip-path="url(#clip980)">
<text style="fill:#000000; fill-opacity:1; font-family:Times New Roman,TimesNewRoman,Times,Baskerville,Georgia,serif; font-size:118px; text-anchor:middle;" transform="rotate(0, 1245.07, 2351.82)" x="1245.07" y="2351.82">Iteration</text>
</g>
<polyline clip-path="url(#clip980)" style="stroke:#000000; stroke-linecap:round; stroke-linejoin:round; stroke-width:4; stroke-opacity:1; fill:none" points="548.802,2085.77 548.802,1247.24 "/>
<polyline clip-path="url(#clip980)" style="stroke:#000000; stroke-linecap:round; stroke-linejoin:round; stroke-width:4; stroke-opacity:1; fill:none" points="548.802,1992.72 567.699,1992.72 "/>
<polyline clip-path="url(#clip980)" style="stroke:#000000; stroke-linecap:round; stroke-linejoin:round; stroke-width:4; stroke-opacity:1; fill:none" points="548.802,1826.25 567.699,1826.25 "/>
<polyline clip-path="url(#clip980)" style="stroke:#000000; stroke-linecap:round; stroke-linejoin:round; stroke-width:4; stroke-opacity:1; fill:none" points="548.802,1659.79 567.699,1659.79 "/>
<polyline clip-path="url(#clip980)" style="stroke:#000000; stroke-linecap:round; stroke-linejoin:round; stroke-width:4; stroke-opacity:1; fill:none" points="548.802,1493.32 567.699,1493.32 "/>
<polyline clip-path="url(#clip980)" style="stroke:#000000; stroke-linecap:round; stroke-linejoin:round; stroke-width:4; stroke-opacity:1; fill:none" points="548.802,1326.85 567.699,1326.85 "/>
<g clip-path="url(#clip980)">
<text style="fill:#000000; fill-opacity:1; font-family:Times New Roman,TimesNewRoman,Times,Baskerville,Georgia,serif; font-size:104px; text-anchor:middle;" transform="rotate(0, 397.442, 2027.22)" x="397.442" y="2027.22">0.15</text>
</g>
<g clip-path="url(#clip980)">
<text style="fill:#000000; fill-opacity:1; font-family:Times New Roman,TimesNewRoman,Times,Baskerville,Georgia,serif; font-size:104px; text-anchor:middle;" transform="rotate(0, 397.442, 1860.75)" x="397.442" y="1860.75">0.20</text>
</g>
<g clip-path="url(#clip980)">
<text style="fill:#000000; fill-opacity:1; font-family:Times New Roman,TimesNewRoman,Times,Baskerville,Georgia,serif; font-size:104px; text-anchor:middle;" transform="rotate(0, 397.442, 1694.29)" x="397.442" y="1694.29">0.25</text>
</g>
<g clip-path="url(#clip980)">
<text style="fill:#000000; fill-opacity:1; font-family:Times New Roman,TimesNewRoman,Times,Baskerville,Georgia,serif; font-size:104px; text-anchor:middle;" transform="rotate(0, 397.442, 1527.82)" x="397.442" y="1527.82">0.30</text>
</g>
<g clip-path="url(#clip980)">
<text style="fill:#000000; fill-opacity:1; font-family:Times New Roman,TimesNewRoman,Times,Baskerville,Georgia,serif; font-size:104px; text-anchor:middle;" transform="rotate(0, 397.442, 1361.35)" x="397.442" y="1361.35">0.35</text>
</g>
<g clip-path="url(#clip980)">
<text style="fill:#000000; fill-opacity:1; font-family:Times New Roman,TimesNewRoman,Times,Baskerville,Georgia,serif; font-size:118px; text-anchor:middle;" transform="rotate(-90, 222.338, 1666.51)" x="222.338" y="1666.51">Loss</text>
</g>
<polyline clip-path="url(#clip983)" style="stroke:#009af9; stroke-linecap:round; stroke-linejoin:round; stroke-width:8; stroke-opacity:1; fill:none" points="588.213,1575.78 594.815,1601.03 601.416,1610.74 608.018,1636.82 614.619,1647.95 621.221,1652.67 627.823,1664.5 634.424,1678.87 641.026,1687.9 647.627,1691.7 654.229,1698.84 660.83,1708.88 667.432,1715.8 674.033,1719.86 680.635,1724.46 687.237,1731.05 693.838,1737.67 700.44,1742.36 707.041,1745.69 713.643,1750.2 720.244,1755.81 726.846,1760.39 733.448,1763.84 740.049,1767.47 746.651,1771.98 753.252,1776.6 759.854,1780.41 766.455,1783.71 773.057,1787.7 779.659,1792.01 786.26,1795.64 792.862,1798.93 799.463,1802.55 806.065,1806.42 812.666,1809.96 819.268,1813.09 825.869,1816.42 832.471,1819.96 839.073,1823.24 845.674,1826.26 852.276,1829.43 858.877,1832.72 865.479,1835.81 872.08,1838.74 878.682,1841.79 885.284,1844.88 891.885,1847.82 898.487,1850.73 905.088,1853.68 911.69,1856.66 918.291,1859.63 924.893,1862.59 931.495,1865.56 938.096,1868.5 944.698,1871.41 951.299,1874.3 957.901,1877.16 964.502,1880 971.104,1882.8 977.705,1885.59 984.307,1888.35 990.909,1891.11 997.51,1893.84 1004.11,1896.56 1010.71,1899.26 1017.31,1901.95 1023.92,1904.62 1030.52,1907.26 1037.12,1909.87 1043.72,1912.46 1050.32,1915.01 1056.92,1917.53 1063.53,1920.01 1070.13,1922.46 1076.73,1924.87 1083.33,1927.25 1089.93,1929.59 1096.53,1931.9 1103.14,1934.17 1109.74,1936.41 1116.34,1938.62 1122.94,1940.8 1129.54,1942.94 1136.14,1945.06 1142.74,1947.15 1149.35,1949.21 1155.95,1951.23 1162.55,1953.23 1169.15,1955.2 1175.75,1957.14 1182.35,1959.05 1188.96,1960.93 1195.56,1962.78 1202.16,1964.6 1208.76,1966.39 1215.36,1968.16 1221.96,1969.9 1228.56,1971.61 1235.17,1973.29 1241.77,1974.95 1248.37,1976.58 1254.97,1978.18 1261.57,1979.76 1268.17,1981.31 1274.78,1982.83 1281.38,1984.33 1287.98,1985.8 1294.58,1987.25 1301.18,1988.68 1307.78,1990.08 1314.39,1991.46 1320.99,1992.82 1327.59,1994.15 1334.19,1995.46 1340.79,1996.75 1347.39,1998.02 1353.99,1999.27 1360.6,2000.5 1367.2,2001.71 1373.8,2002.9 1380.4,2004.07 1387,2005.22 1393.6,2006.35 1400.21,2007.46 1406.81,2008.56 1413.41,2009.63 1420.01,2010.69 1426.61,2011.74 1433.21,2012.76 1439.82,2013.77 1446.42,2014.76 1453.02,2015.74 1459.62,2016.7 1466.22,2017.65 1472.82,2018.58 1479.42,2019.49 1486.03,2020.39 1492.63,2021.28 1499.23,2022.15 1505.83,2023.01 1512.43,2023.85 1519.03,2024.69 1525.64,2025.5 1532.24,2026.31 1538.84,2027.1 1545.44,2027.89 1552.04,2028.66 1558.64,2029.42 1565.24,2030.16 1571.85,2030.9 1578.45,2031.63 1585.05,2032.35 1591.65,2033.05 1598.25,2033.75 1604.85,2034.43 1611.46,2035.01 1618.06,2034.72 1624.66,2036.17 1631.26,2035.71 1637.86,2037.72 1644.46,2034.01 1651.07,2020.03 1657.67,2002.98 1664.27,2009.87 1670.87,2028.35 1677.47,2036.16 1684.07,1998.21 1690.67,2009.56 1697.28,2037.23 1703.88,2024.25 1710.48,2008.16 1717.08,2013.62 1723.68,2032.08 1730.28,2040.33 1736.89,2034.97 1743.49,2025.96 1750.09,2031.35 1756.69,2042.17 1763.29,2042.72 1769.89,2039.42 1776.49,2036.54 1783.1,2037.55 1789.7,2041.55 1796.3,2045.09 1802.9,2046.07 1809.5,2043.31 1816.1,2043.12 1822.71,2046.84 1829.31,2047.96 1835.91,2047.88 1842.51,2047.29 1849.11,2047.24 1855.71,2048.17 1862.32,2049.53 1868.92,2050.53 1875.52,2050.89 1882.12,2050.9 1888.72,2051.01 1895.32,2051.79 1901.92,2052.88 "/>
<polyline clip-path="url(#clip983)" style="stroke:#e26f46; stroke-linecap:round; stroke-linejoin:round; stroke-width:8; stroke-opacity:1; fill:none" points="588.213,1315.92 594.815,1270.98 601.416,1289.01 608.018,1348.76 614.619,1396.65 621.221,1428.75 627.823,1448 634.424,1457.17 641.026,1459.53 647.627,1460.89 654.229,1473.86 660.83,1496.43 667.432,1518.03 674.033,1535.31 680.635,1546.54 687.237,1551.45 693.838,1551.49 700.44,1549.69 707.041,1550.01 713.643,1556.62 720.244,1568.97 726.846,1582.78 733.448,1594.73 740.049,1602.67 746.651,1606.17 753.252,1606.48 759.854,1605.96 766.455,1607.43 773.057,1613.25 779.659,1622.35 786.26,1631.53 792.862,1638.48 799.463,1642.13 806.065,1642.83 812.666,1642.16 819.268,1642.34 825.869,1645.28 832.471,1650.77 839.073,1656.94 845.674,1661.91 852.276,1664.52 858.877,1664.96 865.479,1664.71 872.08,1665.64 878.682,1668.84 885.284,1673.87 891.885,1679.2 898.487,1683.71 905.088,1687.35 911.69,1690.4 918.291,1693.23 924.893,1696.21 931.495,1699.5 938.096,1702.99 944.698,1706.38 951.299,1709.36 957.901,1711.86 964.502,1714.03 971.104,1716.17 977.705,1718.55 984.307,1721.24 990.909,1724.14 997.51,1726.97 1004.11,1729.53 1010.71,1731.71 1017.31,1733.59 1023.92,1735.36 1030.52,1737.21 1037.12,1739.2 1043.72,1741.23 1050.32,1743.12 1056.92,1744.77 1063.53,1746.23 1070.13,1747.67 1076.73,1749.25 1083.33,1750.97 1089.93,1752.71 1096.53,1754.34 1103.14,1755.79 1109.74,1757.13 1116.34,1758.49 1122.94,1759.95 1129.54,1761.49 1136.14,1763.01 1142.74,1764.41 1149.35,1765.7 1155.95,1766.95 1162.55,1768.26 1169.15,1769.68 1175.75,1771.13 1182.35,1772.52 1188.96,1773.82 1195.56,1775.05 1202.16,1776.31 1208.76,1777.64 1215.36,1778.97 1221.96,1780.22 1228.56,1781.35 1235.17,1782.43 1241.77,1783.52 1248.37,1784.65 1254.97,1785.76 1261.57,1786.79 1268.17,1787.76 1274.78,1788.75 1281.38,1789.81 1287.98,1790.89 1294.58,1791.94 1301.18,1792.96 1307.78,1794.02 1314.39,1795.16 1320.99,1796.31 1327.59,1797.42 1334.19,1798.52 1340.79,1799.66 1347.39,1800.83 1353.99,1801.95 1360.6,1803.03 1367.2,1804.11 1373.8,1805.2 1380.4,1806.25 1387,1807.24 1393.6,1808.23 1400.21,1809.24 1406.81,1810.2 1413.41,1811.14 1420.01,1812.11 1426.61,1813.09 1433.21,1814.04 1439.82,1815 1446.42,1816 1453.02,1816.98 1459.62,1817.95 1466.22,1818.95 1472.82,1819.92 1479.42,1820.86 1486.03,1821.82 1492.63,1822.74 1499.23,1823.64 1505.83,1824.54 1512.43,1825.4 1519.03,1826.25 1525.64,1827.11 1532.24,1827.94 1538.84,1828.79 1545.44,1829.62 1552.04,1830.45 1558.64,1831.3 1565.24,1832.13 1571.85,1832.99 1578.45,1833.81 1585.05,1834.7 1591.65,1835.47 1598.25,1836.49 1604.85,1836.92 1611.46,1838.77 1618.06,1835.68 1624.66,1840.82 1631.26,1836.86 1637.86,1841.44 1644.46,1845.31 1651.07,1806.53 1657.67,1783.31 1664.27,1796.43 1670.87,1830.52 1677.47,1860.11 1684.07,1866.8 1690.67,1867.09 1697.28,1850.91 1703.88,1821.58 1710.48,1799.58 1717.08,1805.29 1723.68,1829.68 1730.28,1851.23 1736.89,1862.77 1743.49,1862.9 1750.09,1860.88 1756.69,1852.09 1763.29,1839.05 1769.89,1825.31 1776.49,1816.4 1783.1,1817.09 1789.7,1825.76 1796.3,1836.93 1802.9,1846.32 1809.5,1852.74 1816.1,1853.91 1822.71,1850.34 1829.31,1845.13 1835.91,1839.43 1842.51,1834.97 1849.11,1833.65 1855.71,1835.99 1862.32,1840.84 1868.92,1846.3 1875.52,1850.87 1882.12,1854 1888.72,1855.38 1895.32,1854.55 1901.92,1851.91 "/>
<polyline clip-path="url(#clip983)" style="stroke:#3da44d; stroke-linecap:round; stroke-linejoin:round; stroke-width:8; stroke-opacity:1; fill:none" points="588.213,1524.93 594.815,1555.02 601.416,1569.23 608.018,1579.71 614.619,1591.49 621.221,1604.9 627.823,1619.32 634.424,1632.81 641.026,1643.85 647.627,1652.98 654.229,1661.79 660.83,1670.81 667.432,1680.19 674.033,1689.63 680.635,1698.62 687.237,1706.68 693.838,1714.04 700.44,1721.05 707.041,1728.15 713.643,1735.56 720.244,1742.93 726.846,1749.98 733.448,1756.5 740.049,1762.71 746.651,1768.63 753.252,1774.44 759.854,1780.26 766.455,1786.14 773.057,1791.92 779.659,1797.46 786.26,1802.61 792.862,1807.61 799.463,1812.53 806.065,1817.43 812.666,1822.32 819.268,1827.17 825.869,1831.75 832.471,1836.12 839.073,1840.4 845.674,1844.64 852.276,1848.81 858.877,1852.88 865.479,1856.82 872.08,1860.63 878.682,1864.34 885.284,1868.03 891.885,1871.65 898.487,1875.17 905.088,1878.59 911.69,1881.94 918.291,1885.26 924.893,1888.55 931.495,1891.74 938.096,1894.81 944.698,1897.79 951.299,1900.7 957.901,1903.53 964.502,1906.31 971.104,1909.02 977.705,1911.7 984.307,1914.28 990.909,1916.76 997.51,1919.2 1004.11,1921.63 1010.71,1924.06 1017.31,1926.43 1023.92,1928.75 1030.52,1931.03 1037.12,1933.22 1043.72,1935.41 1050.32,1937.61 1056.92,1939.75 1063.53,1941.81 1070.13,1943.81 1076.73,1945.79 1083.33,1947.71 1089.93,1949.6 1096.53,1951.45 1103.14,1953.3 1109.74,1955.12 1116.34,1956.91 1122.94,1958.65 1129.54,1960.39 1136.14,1962.08 1142.74,1963.72 1149.35,1965.35 1155.95,1966.97 1162.55,1968.58 1169.15,1970.17 1175.75,1971.74 1182.35,1973.27 1188.96,1974.77 1195.56,1976.25 1202.16,1977.73 1208.76,1979.19 1215.36,1980.63 1221.96,1982.02 1228.56,1983.39 1235.17,1984.73 1241.77,1986.04 1248.37,1987.29 1254.97,1988.5 1261.57,1989.69 1268.17,1990.88 1274.78,1992.07 1281.38,1993.22 1287.98,1994.32 1294.58,1995.41 1301.18,1996.47 1307.78,1997.51 1314.39,1998.52 1320.99,1999.51 1327.59,2000.48 1334.19,2001.44 1340.79,2002.39 1347.39,2003.33 1353.99,2004.28 1360.6,2005.23 1367.2,2006.18 1373.8,2007.13 1380.4,2008.04 1387,2008.95 1393.6,2009.83 1400.21,2010.71 1406.81,2011.58 1413.41,2012.46 1420.01,2013.33 1426.61,2014.17 1433.21,2014.99 1439.82,2015.81 1446.42,2016.62 1453.02,2017.42 1459.62,2018.22 1466.22,2019.01 1472.82,2019.8 1479.42,2020.59 1486.03,2021.39 1492.63,2022.19 1499.23,2023 1505.83,2023.82 1512.43,2024.66 1519.03,2025.65 1525.64,2026.82 1532.24,2027.99 1538.84,2029.14 1545.44,2030.27 1552.04,2031.33 1558.64,2032.32 1565.24,2033.28 1571.85,2034.19 1578.45,2035.08 1585.05,2035.93 1591.65,2036.77 1598.25,2037.59 1604.85,2038.4 1611.46,2039.14 1618.06,2039.8 1624.66,2040.5 1631.26,2041.2 1637.86,2041.85 1644.46,2042.48 1651.07,2043.1 1657.67,2043.72 1664.27,2044.33 1670.87,2044.91 1677.47,2045.46 1684.07,2046.03 1690.67,2046.59 1697.28,2047.14 1703.88,2047.69 1710.48,2048.22 1717.08,2048.74 1723.68,2049.27 1730.28,2049.81 1736.89,2050.33 1743.49,2050.84 1750.09,2051.35 1756.69,2051.85 1763.29,2052.34 1769.89,2052.86 1776.49,2053.36 1783.1,2053.85 1789.7,2054.33 1796.3,2054.81 1802.9,2055.29 1809.5,2055.77 1816.1,2056.26 1822.71,2056.73 1829.31,2057.2 1835.91,2057.66 1842.51,2058.13 1849.11,2058.58 1855.71,2059.03 1862.32,2059.49 1868.92,2059.93 1875.52,2060.36 1882.12,2060.79 1888.72,2061.22 1895.32,2061.64 1901.92,2062.04 "/>
<polyline clip-path="url(#clip983)" style="stroke:#c271d2; stroke-linecap:round; stroke-linejoin:round; stroke-width:8; stroke-opacity:1; fill:none" points="588.213,1313.13 594.815,1306.49 601.416,1301.88 608.018,1305.72 614.619,1319.07 621.221,1339.81 627.823,1364.77 634.424,1390.31 641.026,1415.37 647.627,1437.38 654.229,1456.19 660.83,1472.05 667.432,1485.25 674.033,1496.21 680.635,1505.02 687.237,1512.42 693.838,1519.06 700.44,1525.58 707.041,1532.89 713.643,1541.28 720.244,1550.6 726.846,1560.26 733.448,1569.91 740.049,1579.19 746.651,1587.79 753.252,1595.29 759.854,1601.91 766.455,1607.6 773.057,1612.61 779.659,1617.3 786.26,1622 792.862,1627.01 799.463,1632.5 806.065,1638.51 812.666,1644.9 819.268,1651.37 825.869,1657.47 832.471,1662.81 839.073,1667.2 845.674,1670.78 852.276,1673.77 858.877,1676.43 865.479,1678.91 872.08,1681.37 878.682,1684.17 885.284,1687.47 891.885,1691.21 898.487,1695.31 905.088,1699.47 911.69,1703.54 918.291,1707.23 924.893,1710.39 931.495,1712.84 938.096,1714.63 944.698,1716.05 951.299,1717.13 957.901,1717.93 964.502,1718.74 971.104,1719.84 977.705,1721.38 984.307,1723.5 990.909,1725.95 997.51,1728.47 1004.11,1730.89 1010.71,1733.23 1017.31,1735.51 1023.92,1737.64 1030.52,1739.71 1037.12,1741.89 1043.72,1744.37 1050.32,1747.06 1056.92,1749.56 1063.53,1751.56 1070.13,1753.05 1076.73,1754.07 1083.33,1754.78 1089.93,1755.43 1096.53,1756.38 1103.14,1757.84 1109.74,1759.81 1116.34,1761.96 1122.94,1764.07 1129.54,1765.93 1136.14,1767.53 1142.74,1768.69 1149.35,1769.86 1155.95,1771.05 1162.55,1772.1 1169.15,1773.12 1175.75,1774.23 1182.35,1775.49 1188.96,1776.7 1195.56,1777.84 1202.16,1779.02 1208.76,1780.24 1215.36,1781.47 1221.96,1782.54 1228.56,1783.59 1235.17,1784.58 1241.77,1785.5 1248.37,1786.45 1254.97,1787.3 1261.57,1788.09 1268.17,1788.98 1274.78,1790.28 1281.38,1791.82 1287.98,1793.06 1294.58,1793.85 1301.18,1794.15 1307.78,1794.33 1314.39,1794.7 1320.99,1795.44 1327.59,1796.38 1334.19,1797.19 1340.79,1797.84 1347.39,1798.32 1353.99,1798.69 1360.6,1799 1367.2,1799.4 1373.8,1799.87 1380.4,1800.6 1387,1801.5 1393.6,1802.32 1400.21,1802.98 1406.81,1803.34 1413.41,1803.39 1420.01,1802.97 1426.61,1802.36 1433.21,1801.83 1439.82,1801.58 1446.42,1801.81 1453.02,1802.44 1459.62,1803.44 1466.22,1804.72 1472.82,1805.75 1479.42,1806.27 1486.03,1806.29 1492.63,1806.12 1499.23,1806.11 1505.83,1806.49 1512.43,1807.3 1519.03,1808.36 1525.64,1809.13 1532.24,1809.73 1538.84,1810.47 1545.44,1811.94 1552.04,1813.33 1558.64,1813.95 1565.24,1813.59 1571.85,1812.65 1578.45,1811.83 1585.05,1811.71 1591.65,1812.85 1598.25,1814.51 1604.85,1816.36 1611.46,1818.15 1618.06,1819.36 1624.66,1820.23 1631.26,1820.92 1637.86,1821.75 1644.46,1822.97 1651.07,1824.45 1657.67,1825.81 1664.27,1826.75 1670.87,1827.55 1677.47,1828.68 1684.07,1829.96 1690.67,1831.09 1697.28,1831.61 1703.88,1831.29 1710.48,1830.46 1717.08,1829.95 1723.68,1830.35 1730.28,1831.5 1736.89,1832.76 1743.49,1833.61 1750.09,1833.35 1756.69,1832.46 1763.29,1832.14 1769.89,1832.95 1776.49,1834.73 1783.1,1836.23 1789.7,1836.71 1796.3,1836.24 1802.9,1835.77 1809.5,1836.33 1816.1,1837.47 1822.71,1839.19 1829.31,1840.72 1835.91,1841.27 1842.51,1841.08 1849.11,1840.71 1855.71,1840.74 1862.32,1841.46 1868.92,1842.89 1875.52,1844.68 1882.12,1845.52 1888.72,1845.05 1895.32,1844.16 1901.92,1844.27 "/>
<path clip-path="url(#clip980)" d="M548.802 3285.77 L1941.34 3285.77 L1941.34 2447.24 L548.802 2447.24  Z" fill="#ffffff" fill-rule="evenodd" fill-opacity="1"/>
<defs>
  <clipPath id="clip984">
    <rect x="548" y="2447" width="1394" height="840"/>
  </clipPath>
</defs>
<polyline clip-path="url(#clip984)" style="stroke:#000000; stroke-linecap:round; stroke-linejoin:round; stroke-width:2; stroke-opacity:0.1; fill:none" points="581.612,3285.77 581.612,2447.24 "/>
<polyline clip-path="url(#clip984)" style="stroke:#000000; stroke-linecap:round; stroke-linejoin:round; stroke-width:2; stroke-opacity:0.1; fill:none" points="911.69,3285.77 911.69,2447.24 "/>
<polyline clip-path="url(#clip984)" style="stroke:#000000; stroke-linecap:round; stroke-linejoin:round; stroke-width:2; stroke-opacity:0.1; fill:none" points="1241.77,3285.77 1241.77,2447.24 "/>
<polyline clip-path="url(#clip984)" style="stroke:#000000; stroke-linecap:round; stroke-linejoin:round; stroke-width:2; stroke-opacity:0.1; fill:none" points="1571.85,3285.77 1571.85,2447.24 "/>
<polyline clip-path="url(#clip984)" style="stroke:#000000; stroke-linecap:round; stroke-linejoin:round; stroke-width:2; stroke-opacity:0.1; fill:none" points="1901.92,3285.77 1901.92,2447.24 "/>
<polyline clip-path="url(#clip984)" style="stroke:#000000; stroke-linecap:round; stroke-linejoin:round; stroke-width:2; stroke-opacity:0.1; fill:none" points="548.802,3181.54 1941.34,3181.54 "/>
<polyline clip-path="url(#clip984)" style="stroke:#000000; stroke-linecap:round; stroke-linejoin:round; stroke-width:2; stroke-opacity:0.1; fill:none" points="548.802,3049.51 1941.34,3049.51 "/>
<polyline clip-path="url(#clip984)" style="stroke:#000000; stroke-linecap:round; stroke-linejoin:round; stroke-width:2; stroke-opacity:0.1; fill:none" points="548.802,2917.48 1941.34,2917.48 "/>
<polyline clip-path="url(#clip984)" style="stroke:#000000; stroke-linecap:round; stroke-linejoin:round; stroke-width:2; stroke-opacity:0.1; fill:none" points="548.802,2785.45 1941.34,2785.45 "/>
<polyline clip-path="url(#clip984)" style="stroke:#000000; stroke-linecap:round; stroke-linejoin:round; stroke-width:2; stroke-opacity:0.1; fill:none" points="548.802,2653.42 1941.34,2653.42 "/>
<polyline clip-path="url(#clip984)" style="stroke:#000000; stroke-linecap:round; stroke-linejoin:round; stroke-width:2; stroke-opacity:0.1; fill:none" points="548.802,2521.39 1941.34,2521.39 "/>
<polyline clip-path="url(#clip980)" style="stroke:#000000; stroke-linecap:round; stroke-linejoin:round; stroke-width:4; stroke-opacity:1; fill:none" points="548.802,3285.77 1941.34,3285.77 "/>
<polyline clip-path="url(#clip980)" style="stroke:#000000; stroke-linecap:round; stroke-linejoin:round; stroke-width:4; stroke-opacity:1; fill:none" points="581.612,3285.77 581.612,3266.88 "/>
<polyline clip-path="url(#clip980)" style="stroke:#000000; stroke-linecap:round; stroke-linejoin:round; stroke-width:4; stroke-opacity:1; fill:none" points="911.69,3285.77 911.69,3266.88 "/>
<polyline clip-path="url(#clip980)" style="stroke:#000000; stroke-linecap:round; stroke-linejoin:round; stroke-width:4; stroke-opacity:1; fill:none" points="1241.77,3285.77 1241.77,3266.88 "/>
<polyline clip-path="url(#clip980)" style="stroke:#000000; stroke-linecap:round; stroke-linejoin:round; stroke-width:4; stroke-opacity:1; fill:none" points="1571.85,3285.77 1571.85,3266.88 "/>
<polyline clip-path="url(#clip980)" style="stroke:#000000; stroke-linecap:round; stroke-linejoin:round; stroke-width:4; stroke-opacity:1; fill:none" points="1901.92,3285.77 1901.92,3266.88 "/>
<g clip-path="url(#clip980)">
<text style="fill:#000000; fill-opacity:1; font-family:Times New Roman,TimesNewRoman,Times,Baskerville,Georgia,serif; font-size:104px; text-anchor:middle;" transform="rotate(0, 581.612, 3404.43)" x="581.612" y="3404.43">0</text>
</g>
<g clip-path="url(#clip980)">
<text style="fill:#000000; fill-opacity:1; font-family:Times New Roman,TimesNewRoman,Times,Baskerville,Georgia,serif; font-size:104px; text-anchor:middle;" transform="rotate(0, 911.69, 3404.43)" x="911.69" y="3404.43">50</text>
</g>
<g clip-path="url(#clip980)">
<text style="fill:#000000; fill-opacity:1; font-family:Times New Roman,TimesNewRoman,Times,Baskerville,Georgia,serif; font-size:104px; text-anchor:middle;" transform="rotate(0, 1241.77, 3404.43)" x="1241.77" y="3404.43">100</text>
</g>
<g clip-path="url(#clip980)">
<text style="fill:#000000; fill-opacity:1; font-family:Times New Roman,TimesNewRoman,Times,Baskerville,Georgia,serif; font-size:104px; text-anchor:middle;" transform="rotate(0, 1571.85, 3404.43)" x="1571.85" y="3404.43">150</text>
</g>
<g clip-path="url(#clip980)">
<text style="fill:#000000; fill-opacity:1; font-family:Times New Roman,TimesNewRoman,Times,Baskerville,Georgia,serif; font-size:104px; text-anchor:middle;" transform="rotate(0, 1901.92, 3404.43)" x="1901.92" y="3404.43">200</text>
</g>
<g clip-path="url(#clip980)">
<text style="fill:#000000; fill-opacity:1; font-family:Times New Roman,TimesNewRoman,Times,Baskerville,Georgia,serif; font-size:118px; text-anchor:middle;" transform="rotate(0, 1245.07, 3551.82)" x="1245.07" y="3551.82">Iteration</text>
</g>
<polyline clip-path="url(#clip980)" style="stroke:#000000; stroke-linecap:round; stroke-linejoin:round; stroke-width:4; stroke-opacity:1; fill:none" points="548.802,3285.77 548.802,2447.24 "/>
<polyline clip-path="url(#clip980)" style="stroke:#000000; stroke-linecap:round; stroke-linejoin:round; stroke-width:4; stroke-opacity:1; fill:none" points="548.802,3181.54 567.699,3181.54 "/>
<polyline clip-path="url(#clip980)" style="stroke:#000000; stroke-linecap:round; stroke-linejoin:round; stroke-width:4; stroke-opacity:1; fill:none" points="548.802,3049.51 567.699,3049.51 "/>
<polyline clip-path="url(#clip980)" style="stroke:#000000; stroke-linecap:round; stroke-linejoin:round; stroke-width:4; stroke-opacity:1; fill:none" points="548.802,2917.48 567.699,2917.48 "/>
<polyline clip-path="url(#clip980)" style="stroke:#000000; stroke-linecap:round; stroke-linejoin:round; stroke-width:4; stroke-opacity:1; fill:none" points="548.802,2785.45 567.699,2785.45 "/>
<polyline clip-path="url(#clip980)" style="stroke:#000000; stroke-linecap:round; stroke-linejoin:round; stroke-width:4; stroke-opacity:1; fill:none" points="548.802,2653.42 567.699,2653.42 "/>
<polyline clip-path="url(#clip980)" style="stroke:#000000; stroke-linecap:round; stroke-linejoin:round; stroke-width:4; stroke-opacity:1; fill:none" points="548.802,2521.39 567.699,2521.39 "/>
<g clip-path="url(#clip980)">
<text style="fill:#000000; fill-opacity:1; font-family:Times New Roman,TimesNewRoman,Times,Baskerville,Georgia,serif; font-size:104px; text-anchor:middle;" transform="rotate(0, 397.442, 3216.04)" x="397.442" y="3216.04">0.10</text>
</g>
<g clip-path="url(#clip980)">
<text style="fill:#000000; fill-opacity:1; font-family:Times New Roman,TimesNewRoman,Times,Baskerville,Georgia,serif; font-size:104px; text-anchor:middle;" transform="rotate(0, 397.442, 3084.01)" x="397.442" y="3084.01">0.15</text>
</g>
<g clip-path="url(#clip980)">
<text style="fill:#000000; fill-opacity:1; font-family:Times New Roman,TimesNewRoman,Times,Baskerville,Georgia,serif; font-size:104px; text-anchor:middle;" transform="rotate(0, 397.442, 2951.98)" x="397.442" y="2951.98">0.20</text>
</g>
<g clip-path="url(#clip980)">
<text style="fill:#000000; fill-opacity:1; font-family:Times New Roman,TimesNewRoman,Times,Baskerville,Georgia,serif; font-size:104px; text-anchor:middle;" transform="rotate(0, 397.442, 2819.95)" x="397.442" y="2819.95">0.25</text>
</g>
<g clip-path="url(#clip980)">
<text style="fill:#000000; fill-opacity:1; font-family:Times New Roman,TimesNewRoman,Times,Baskerville,Georgia,serif; font-size:104px; text-anchor:middle;" transform="rotate(0, 397.442, 2687.92)" x="397.442" y="2687.92">0.30</text>
</g>
<g clip-path="url(#clip980)">
<text style="fill:#000000; fill-opacity:1; font-family:Times New Roman,TimesNewRoman,Times,Baskerville,Georgia,serif; font-size:104px; text-anchor:middle;" transform="rotate(0, 397.442, 2555.89)" x="397.442" y="2555.89">0.35</text>
</g>
<g clip-path="url(#clip980)">
<text style="fill:#000000; fill-opacity:1; font-family:Times New Roman,TimesNewRoman,Times,Baskerville,Georgia,serif; font-size:118px; text-anchor:middle;" transform="rotate(-90, 222.338, 2866.51)" x="222.338" y="2866.51">Loss</text>
</g>
<polyline clip-path="url(#clip984)" style="stroke:#009af9; stroke-linecap:round; stroke-linejoin:round; stroke-width:8; stroke-opacity:1; fill:none" points="588.213,2961.66 594.815,3012.86 601.416,3023.72 608.018,3056.77 614.619,3081.62 621.221,3087.24 627.823,3091.79 634.424,3104.52 641.026,3116.83 647.627,3121.95 654.229,3123.76 660.83,3129.06 667.432,3137.8 674.033,3145.19 680.635,3148.62 687.237,3150.26 693.838,3153.52 700.44,3158.43 707.041,3162.3 713.643,3163.72 720.244,3164.29 726.846,3166.2 733.448,3169.33 740.049,3171.93 746.651,3173.38 753.252,3174.96 759.854,3177.57 766.455,3180.36 773.057,3182.19 779.659,3183.27 786.26,3184.59 792.862,3186.23 799.463,3187.42 806.065,3187.92 812.666,3188.45 819.268,3189.44 825.869,3190.44 832.471,3191.06 839.073,3191.63 845.674,3192.56 852.276,3193.59 858.877,3194.34 865.479,3194.97 872.08,3195.82 878.682,3196.77 885.284,3197.54 891.885,3198.25 898.487,3199.11 905.088,3200.01 911.69,3200.77 918.291,3201.47 924.893,3202.27 931.495,3203.09 938.096,3203.79 944.698,3204.4 951.299,3205.02 957.901,3205.64 964.502,3206.21 971.104,3206.78 977.705,3207.43 984.307,3208.09 990.909,3208.71 997.51,3209.33 1004.11,3209.95 1010.71,3210.55 1017.31,3211.09 1023.92,3211.62 1030.52,3212.16 1037.12,3212.67 1043.72,3213.15 1050.32,3213.63 1056.92,3214.11 1063.53,3214.57 1070.13,3215.03 1076.73,3215.5 1083.33,3215.99 1089.93,3216.48 1096.53,3216.96 1103.14,3217.44 1109.74,3217.89 1116.34,3218.33 1122.94,3218.77 1129.54,3219.21 1136.14,3219.64 1142.74,3220.08 1149.35,3220.51 1155.95,3220.95 1162.55,3221.39 1169.15,3221.82 1175.75,3222.25 1182.35,3222.68 1188.96,3223.11 1195.56,3223.52 1202.16,3223.95 1208.76,3224.36 1215.36,3224.77 1221.96,3225.18 1228.56,3225.58 1235.17,3225.99 1241.77,3226.4 1248.37,3226.8 1254.97,3227.2 1261.57,3227.59 1268.17,3227.98 1274.78,3228.36 1281.38,3228.76 1287.98,3229.15 1294.58,3229.55 1301.18,3229.95 1307.78,3230.36 1314.39,3230.76 1320.99,3231.18 1327.59,3231.6 1334.19,3232.02 1340.79,3232.44 1347.39,3232.85 1353.99,3233.24 1360.6,3233.63 1367.2,3234.01 1373.8,3234.38 1380.4,3234.73 1387,3235.08 1393.6,3235.43 1400.21,3235.78 1406.81,3236.13 1413.41,3236.48 1420.01,3236.82 1426.61,3237.16 1433.21,3237.5 1439.82,3237.84 1446.42,3238.17 1453.02,3238.5 1459.62,3238.82 1466.22,3239.13 1472.82,3239.45 1479.42,3239.75 1486.03,3240.05 1492.63,3240.35 1499.23,3240.64 1505.83,3240.93 1512.43,3241.22 1519.03,3241.49 1525.64,3241.77 1532.24,3242.04 1538.84,3242.31 1545.44,3242.57 1552.04,3242.83 1558.64,3243.09 1565.24,3243.34 1571.85,3243.59 1578.45,3243.84 1585.05,3244.08 1591.65,3244.32 1598.25,3244.56 1604.85,3244.79 1611.46,3245.03 1618.06,3245.26 1624.66,3245.49 1631.26,3245.71 1637.86,3245.93 1644.46,3246.16 1651.07,3246.37 1657.67,3246.59 1664.27,3246.8 1670.87,3247.02 1677.47,3247.23 1684.07,3247.43 1690.67,3247.64 1697.28,3247.84 1703.88,3248.04 1710.48,3248.24 1717.08,3248.44 1723.68,3248.64 1730.28,3248.83 1736.89,3249.02 1743.49,3249.21 1750.09,3249.4 1756.69,3249.59 1763.29,3249.78 1769.89,3249.96 1776.49,3250.14 1783.1,3250.32 1789.7,3250.5 1796.3,3250.68 1802.9,3250.85 1809.5,3251.03 1816.1,3251.2 1822.71,3251.37 1829.31,3251.54 1835.91,3251.71 1842.51,3251.88 1849.11,3252.04 1855.71,3252.21 1862.32,3252.37 1868.92,3252.53 1875.52,3252.69 1882.12,3252.85 1888.72,3253.01 1895.32,3253.16 1901.92,3253.32 "/>
<polyline clip-path="url(#clip984)" style="stroke:#e26f46; stroke-linecap:round; stroke-linejoin:round; stroke-width:8; stroke-opacity:1; fill:none" points="588.213,2539.93 594.815,2502.12 601.416,2470.98 608.018,2499.3 614.619,2539.75 621.221,2566.28 627.823,2573.91 634.424,2566.13 641.026,2543.96 647.627,2515.91 654.229,2498.92 660.83,2505.07 667.432,2532.78 674.033,2571.28 680.635,2608.24 687.237,2635.13 693.838,2649.21 700.44,2650.5 707.041,2641.4 713.643,2628.8 720.244,2621.86 726.846,2626.81 733.448,2642.77 740.049,2662.6 746.651,2677.63 753.252,2682.02 759.854,2674.32 766.455,2657.16 773.057,2636.64 779.659,2620.42 786.26,2614.05 792.862,2617.61 799.463,2626.07 806.065,2632.98 812.666,2633.95 819.268,2628 825.869,2617.5 832.471,2607.52 839.073,2603.8 845.674,2609.03 852.276,2620.89 858.877,2633.85 865.479,2642.71 872.08,2645.13 878.682,2642.19 885.284,2637.73 891.885,2636.32 898.487,2640.39 905.088,2648.54 911.69,2656.93 918.291,2662 924.893,2662.41 931.495,2659.36 938.096,2655.75 944.698,2654.68 951.299,2657.49 957.901,2663.13 964.502,2669.12 971.104,2673.2 977.705,2674.52 984.307,2673.92 990.909,2673.37 997.51,2674.73 1004.11,2678.58 1010.71,2683.87 1017.31,2688.66 1023.92,2691.43 1030.52,2691.9 1037.12,2691.02 1043.72,2690.42 1050.32,2691.35 1056.92,2693.83 1063.53,2696.91 1070.13,2699.33 1076.73,2700.44 1083.33,2700.53 1089.93,2700.61 1096.53,2701.71 1103.14,2704.2 1109.74,2707.56 1116.34,2710.82 1122.94,2713.17 1129.54,2714.5 1136.14,2715.33 1142.74,2716.45 1149.35,2718.31 1155.95,2720.73 1162.55,2723.07 1169.15,2724.72 1175.75,2725.54 1182.35,2725.92 1188.96,2726.49 1195.56,2727.65 1202.16,2729.3 1208.76,2731.02 1215.36,2732.36 1221.96,2733.23 1228.56,2733.91 1235.17,2734.85 1241.77,2736.26 1248.37,2738.01 1254.97,2739.69 1261.57,2741 1268.17,2741.92 1274.78,2742.71 1281.38,2743.66 1287.98,2744.88 1294.58,2746.22 1301.18,2747.43 1307.78,2748.38 1314.39,2749.19 1320.99,2750.08 1327.59,2751.23 1334.19,2752.58 1340.79,2753.94 1347.39,2755.14 1353.99,2756.15 1360.6,2757.11 1367.2,2758.16 1373.8,2759.32 1380.4,2760.47 1387,2761.44 1393.6,2762.25 1400.21,2763.01 1406.81,2763.87 1413.41,2764.87 1420.01,2765.92 1426.61,2766.88 1433.21,2767.73 1439.82,2768.54 1446.42,2769.39 1453.02,2770.25 1459.62,2771.03 1466.22,2771.64 1472.82,2772.1 1479.42,2772.49 1486.03,2772.9 1492.63,2773.28 1499.23,2773.6 1505.83,2773.83 1512.43,2774.02 1519.03,2774.24 1525.64,2774.51 1532.24,2774.76 1538.84,2774.96 1545.44,2775.1 1552.04,2775.21 1558.64,2775.34 1565.24,2775.47 1571.85,2775.55 1578.45,2775.58 1585.05,2775.59 1591.65,2775.63 1598.25,2775.71 1604.85,2775.81 1611.46,2775.9 1618.06,2775.99 1624.66,2776.12 1631.26,2776.29 1637.86,2776.48 1644.46,2776.65 1651.07,2776.8 1657.67,2776.96 1664.27,2777.14 1670.87,2777.32 1677.47,2777.49 1684.07,2777.65 1690.67,2777.81 1697.28,2778 1703.88,2778.2 1710.48,2778.4 1717.08,2778.6 1723.68,2778.78 1730.28,2778.97 1736.89,2779.16 1743.49,2779.33 1750.09,2779.49 1756.69,2779.62 1763.29,2779.76 1769.89,2779.89 1776.49,2780.02 1783.1,2780.13 1789.7,2780.24 1796.3,2780.36 1802.9,2780.47 1809.5,2780.59 1816.1,2780.69 1822.71,2780.79 1829.31,2780.88 1835.91,2780.98 1842.51,2781.07 1849.11,2781.15 1855.71,2781.22 1862.32,2781.3 1868.92,2781.38 1875.52,2781.47 1882.12,2781.54 1888.72,2781.63 1895.32,2781.71 1901.92,2781.8 "/>
<polyline clip-path="url(#clip984)" style="stroke:#3da44d; stroke-linecap:round; stroke-linejoin:round; stroke-width:8; stroke-opacity:1; fill:none" points="588.213,2963.61 594.815,3005.94 601.416,3036.01 608.018,3058.24 614.619,3076.55 621.221,3092.63 627.823,3106.69 634.424,3118.36 641.026,3127.39 647.627,3134.05 654.229,3138.88 660.83,3142.57 667.432,3145.74 674.033,3148.85 680.635,3152.1 687.237,3155.46 693.838,3158.82 700.44,3162.07 707.041,3165.22 713.643,3168.26 720.244,3171.26 726.846,3174.2 733.448,3177.02 740.049,3179.66 746.651,3182.1 753.252,3184.25 759.854,3186.16 766.455,3187.93 773.057,3189.65 779.659,3191.36 786.26,3193.12 792.862,3194.92 799.463,3196.66 806.065,3198.35 812.666,3199.96 819.268,3201.5 825.869,3203.01 832.471,3204.48 839.073,3205.85 845.674,3207.05 852.276,3208.11 858.877,3209.03 865.479,3209.89 872.08,3210.68 878.682,3211.43 885.284,3212.18 891.885,3212.91 898.487,3213.64 905.088,3214.37 911.69,3215.11 918.291,3215.81 924.893,3216.49 931.495,3217.18 938.096,3217.86 944.698,3218.51 951.299,3219.13 957.901,3219.71 964.502,3220.26 971.104,3220.79 977.705,3221.29 984.307,3221.78 990.909,3222.27 997.51,3222.75 1004.11,3223.23 1010.71,3223.7 1017.31,3224.19 1023.92,3224.67 1030.52,3225.17 1037.12,3225.66 1043.72,3226.15 1050.32,3226.64 1056.92,3227.12 1063.53,3227.61 1070.13,3228.09 1076.73,3228.56 1083.33,3229.03 1089.93,3229.51 1096.53,3229.99 1103.14,3230.48 1109.74,3230.95 1116.34,3231.41 1122.94,3231.87 1129.54,3232.31 1136.14,3232.74 1142.74,3233.16 1149.35,3233.58 1155.95,3234 1162.55,3234.43 1169.15,3234.86 1175.75,3235.27 1182.35,3235.67 1188.96,3236.08 1195.56,3236.47 1202.16,3236.84 1208.76,3237.2 1215.36,3237.57 1221.96,3237.93 1228.56,3238.31 1235.17,3238.69 1241.77,3239.03 1248.37,3239.36 1254.97,3239.67 1261.57,3239.99 1268.17,3240.31 1274.78,3240.6 1281.38,3240.9 1287.98,3241.18 1294.58,3241.47 1301.18,3241.75 1307.78,3242.02 1314.39,3242.29 1320.99,3242.55 1327.59,3242.8 1334.19,3243.06 1340.79,3243.32 1347.39,3243.57 1353.99,3243.82 1360.6,3244.07 1367.2,3244.32 1373.8,3244.56 1380.4,3244.8 1387,3245.04 1393.6,3245.27 1400.21,3245.51 1406.81,3245.75 1413.41,3245.98 1420.01,3246.21 1426.61,3246.43 1433.21,3246.65 1439.82,3246.87 1446.42,3247.09 1453.02,3247.31 1459.62,3247.53 1466.22,3247.75 1472.82,3247.94 1479.42,3248.14 1486.03,3248.35 1492.63,3248.56 1499.23,3248.77 1505.83,3248.98 1512.43,3249.19 1519.03,3249.41 1525.64,3249.62 1532.24,3249.83 1538.84,3250.03 1545.44,3250.24 1552.04,3250.45 1558.64,3250.66 1565.24,3250.88 1571.85,3251.1 1578.45,3251.32 1585.05,3251.55 1591.65,3251.77 1598.25,3252 1604.85,3252.24 1611.46,3252.47 1618.06,3252.71 1624.66,3252.95 1631.26,3253.19 1637.86,3253.43 1644.46,3253.68 1651.07,3253.92 1657.67,3254.16 1664.27,3254.4 1670.87,3254.64 1677.47,3254.88 1684.07,3255.11 1690.67,3255.35 1697.28,3255.58 1703.88,3255.8 1710.48,3256.02 1717.08,3256.25 1723.68,3256.48 1730.28,3256.7 1736.89,3256.93 1743.49,3257.15 1750.09,3257.38 1756.69,3257.62 1763.29,3257.85 1769.89,3258.07 1776.49,3258.3 1783.1,3258.52 1789.7,3258.74 1796.3,3258.95 1802.9,3259.17 1809.5,3259.38 1816.1,3259.58 1822.71,3259.79 1829.31,3259.98 1835.91,3260.18 1842.51,3260.37 1849.11,3260.56 1855.71,3260.75 1862.32,3260.94 1868.92,3261.13 1875.52,3261.31 1882.12,3261.5 1888.72,3261.68 1895.32,3261.86 1901.92,3262.04 "/>
<polyline clip-path="url(#clip984)" style="stroke:#c271d2; stroke-linecap:round; stroke-linejoin:round; stroke-width:8; stroke-opacity:1; fill:none" points="588.213,2539.87 594.815,2552.95 601.416,2559.54 608.018,2562.84 614.619,2566.21 621.221,2570.96 627.823,2577.46 634.424,2584.96 641.026,2592.51 647.627,2599.45 654.229,2605.44 660.83,2609.96 667.432,2613.06 674.033,2615.04 680.635,2616.31 687.237,2617.34 693.838,2618.75 700.44,2621.21 707.041,2625.11 713.643,2630.85 720.244,2638.59 726.846,2648.15 733.448,2659.1 740.049,2670.77 746.651,2682.32 753.252,2693.02 759.854,2702.21 766.455,2709.33 773.057,2714.21 779.659,2716.81 786.26,2717.24 792.862,2715.72 799.463,2712.66 806.065,2708.66 812.666,2704.29 819.268,2699.97 825.869,2696.1 832.471,2693.02 839.073,2690.69 845.674,2688.95 852.276,2687.48 858.877,2686.14 865.479,2684.83 872.08,2683.47 878.682,2682.18 885.284,2680.98 891.885,2680.06 898.487,2679.61 905.088,2679.85 911.69,2680.99 918.291,2683.04 924.893,2686.04 931.495,2689.9 938.096,2694.46 944.698,2699.39 951.299,2704.34 957.901,2709.05 964.502,2713.33 971.104,2717 977.705,2719.92 984.307,2722.07 990.909,2723.59 997.51,2724.61 1004.11,2725.4 1010.71,2726.06 1017.31,2726.66 1023.92,2727.24 1030.52,2727.83 1037.12,2728.35 1043.72,2728.72 1050.32,2728.86 1056.92,2728.75 1063.53,2728.43 1070.13,2727.97 1076.73,2727.58 1083.33,2727.41 1089.93,2727.59 1096.53,2728.09 1103.14,2728.89 1109.74,2729.95 1116.34,2731.11 1122.94,2732.32 1129.54,2733.62 1136.14,2734.99 1142.74,2736.48 1149.35,2738.08 1155.95,2739.72 1162.55,2741.41 1169.15,2743.07 1175.75,2744.66 1182.35,2746.15 1188.96,2747.5 1195.56,2748.62 1202.16,2749.55 1208.76,2750.41 1215.36,2751.25 1221.96,2752.06 1228.56,2752.8 1235.17,2753.45 1241.77,2754.03 1248.37,2754.6 1254.97,2755.2 1261.57,2755.82 1268.17,2756.48 1274.78,2757.19 1281.38,2758 1287.98,2758.95 1294.58,2760.01 1301.18,2761.16 1307.78,2762.37 1314.39,2763.57 1320.99,2764.68 1327.59,2765.67 1334.19,2766.61 1340.79,2767.5 1347.39,2768.34 1353.99,2769.05 1360.6,2769.6 1367.2,2770 1373.8,2770.31 1380.4,2770.54 1387,2770.74 1393.6,2771.03 1400.21,2771.46 1406.81,2772.1 1413.41,2772.9 1420.01,2773.83 1426.61,2774.92 1433.21,2776.02 1439.82,2777.01 1446.42,2777.83 1453.02,2778.43 1459.62,2778.89 1466.22,2779.33 1472.82,2779.87 1479.42,2780.6 1486.03,2781.52 1492.63,2782.55 1499.23,2783.47 1505.83,2784.21 1512.43,2784.75 1519.03,2785.21 1525.64,2785.64 1532.24,2786.09 1538.84,2786.62 1545.44,2787.24 1552.04,2787.9 1558.64,2788.65 1565.24,2789.41 1571.85,2790.08 1578.45,2790.62 1585.05,2790.97 1591.65,2791.11 1598.25,2791.2 1604.85,2791.31 1611.46,2791.54 1618.06,2791.94 1624.66,2792.52 1631.26,2793.22 1637.86,2793.99 1644.46,2794.82 1651.07,2795.78 1657.67,2796.84 1664.27,2797.92 1670.87,2798.89 1677.47,2799.71 1684.07,2800.35 1690.67,2800.76 1697.28,2800.93 1703.88,2800.94 1710.48,2800.91 1717.08,2801.01 1723.68,2801.4 1730.28,2801.97 1736.89,2802.43 1743.49,2802.7 1750.09,2802.89 1756.69,2803.03 1763.29,2803.08 1769.89,2803.05 1776.49,2802.97 1783.1,2802.92 1789.7,2802.82 1796.3,2802.71 1802.9,2802.6 1809.5,2802.48 1816.1,2802.38 1822.71,2802.25 1829.31,2802.12 1835.91,2802.04 1842.51,2802.13 1849.11,2802.41 1855.71,2803.03 1862.32,2803.87 1868.92,2804.64 1875.52,2805.15 1882.12,2805.45 1888.72,2805.62 1895.32,2805.76 1901.92,2805.82 "/>
<path clip-path="url(#clip980)" d="M2560.22 3285.77 L3952.76 3285.77 L3952.76 47.2441 L2560.22 47.2441  Z" fill="#ffffff" fill-rule="evenodd" fill-opacity="1"/>
<defs>
  <clipPath id="clip985">
    <rect x="2560" y="47" width="1394" height="3240"/>
  </clipPath>
</defs>
<polyline clip-path="url(#clip980)" style="stroke:#000000; stroke-linecap:round; stroke-linejoin:round; stroke-width:4; stroke-opacity:1; fill:none" points="2560.22,3285.77 3952.76,3285.77 "/>
<polyline clip-path="url(#clip980)" style="stroke:#000000; stroke-linecap:round; stroke-linejoin:round; stroke-width:4; stroke-opacity:1; fill:none" points="2560.22,47.2441 3952.76,47.2441 "/>
<polyline clip-path="url(#clip980)" style="stroke:#000000; stroke-linecap:round; stroke-linejoin:round; stroke-width:4; stroke-opacity:1; fill:none" points="2838.49,3285.77 2838.49,3266.88 "/>
<polyline clip-path="url(#clip980)" style="stroke:#000000; stroke-linecap:round; stroke-linejoin:round; stroke-width:4; stroke-opacity:1; fill:none" points="3674.49,3285.77 3674.49,3266.88 "/>
<polyline clip-path="url(#clip980)" style="stroke:#000000; stroke-linecap:round; stroke-linejoin:round; stroke-width:4; stroke-opacity:1; fill:none" points="2838.49,47.2441 2838.49,66.1417 "/>
<polyline clip-path="url(#clip980)" style="stroke:#000000; stroke-linecap:round; stroke-linejoin:round; stroke-width:4; stroke-opacity:1; fill:none" points="3674.49,47.2441 3674.49,66.1417 "/>
<g clip-path="url(#clip980)">
<text style="fill:#000000; fill-opacity:1; font-family:Times New Roman,TimesNewRoman,Times,Baskerville,Georgia,serif; font-size:118px; text-anchor:middle;" transform="rotate(0, 2838.49, 3415.45)" x="2838.49" y="3415.45">K50</text>
</g>
<g clip-path="url(#clip980)">
<text style="fill:#000000; fill-opacity:1; font-family:Times New Roman,TimesNewRoman,Times,Baskerville,Georgia,serif; font-size:118px; text-anchor:middle;" transform="rotate(0, 3674.49, 3415.45)" x="3674.49" y="3415.45">M50</text>
</g>
<polyline clip-path="url(#clip980)" style="stroke:#000000; stroke-linecap:round; stroke-linejoin:round; stroke-width:4; stroke-opacity:1; fill:none" points="2560.22,3285.77 2560.22,47.2441 "/>
<polyline clip-path="url(#clip980)" style="stroke:#000000; stroke-linecap:round; stroke-linejoin:round; stroke-width:4; stroke-opacity:1; fill:none" points="3952.76,3285.77 3952.76,47.2441 "/>
<polyline clip-path="url(#clip980)" style="stroke:#000000; stroke-linecap:round; stroke-linejoin:round; stroke-width:4; stroke-opacity:1; fill:none" points="2560.22,2760.33 2579.12,2760.33 "/>
<polyline clip-path="url(#clip980)" style="stroke:#000000; stroke-linecap:round; stroke-linejoin:round; stroke-width:4; stroke-opacity:1; fill:none" points="2560.22,2146.48 2579.12,2146.48 "/>
<polyline clip-path="url(#clip980)" style="stroke:#000000; stroke-linecap:round; stroke-linejoin:round; stroke-width:4; stroke-opacity:1; fill:none" points="2560.22,1532.62 2579.12,1532.62 "/>
<polyline clip-path="url(#clip980)" style="stroke:#000000; stroke-linecap:round; stroke-linejoin:round; stroke-width:4; stroke-opacity:1; fill:none" points="2560.22,918.764 2579.12,918.764 "/>
<polyline clip-path="url(#clip980)" style="stroke:#000000; stroke-linecap:round; stroke-linejoin:round; stroke-width:4; stroke-opacity:1; fill:none" points="2560.22,304.907 2579.12,304.907 "/>
<polyline clip-path="url(#clip980)" style="stroke:#000000; stroke-linecap:round; stroke-linejoin:round; stroke-width:4; stroke-opacity:1; fill:none" points="3952.76,2760.33 3933.86,2760.33 "/>
<polyline clip-path="url(#clip980)" style="stroke:#000000; stroke-linecap:round; stroke-linejoin:round; stroke-width:4; stroke-opacity:1; fill:none" points="3952.76,2146.48 3933.86,2146.48 "/>
<polyline clip-path="url(#clip980)" style="stroke:#000000; stroke-linecap:round; stroke-linejoin:round; stroke-width:4; stroke-opacity:1; fill:none" points="3952.76,1532.62 3933.86,1532.62 "/>
<polyline clip-path="url(#clip980)" style="stroke:#000000; stroke-linecap:round; stroke-linejoin:round; stroke-width:4; stroke-opacity:1; fill:none" points="3952.76,918.764 3933.86,918.764 "/>
<polyline clip-path="url(#clip980)" style="stroke:#000000; stroke-linecap:round; stroke-linejoin:round; stroke-width:4; stroke-opacity:1; fill:none" points="3952.76,304.907 3933.86,304.907 "/>
<g clip-path="url(#clip980)">
<text style="fill:#000000; fill-opacity:1; font-family:Times New Roman,TimesNewRoman,Times,Baskerville,Georgia,serif; font-size:118px; text-anchor:middle;" transform="rotate(0, 2397.44, 2799.33)" x="2397.44" y="2799.33">1.00</text>
</g>
<g clip-path="url(#clip980)">
<text style="fill:#000000; fill-opacity:1; font-family:Times New Roman,TimesNewRoman,Times,Baskerville,Georgia,serif; font-size:118px; text-anchor:middle;" transform="rotate(0, 2397.44, 2185.48)" x="2397.44" y="2185.48">1.25</text>
</g>
<g clip-path="url(#clip980)">
<text style="fill:#000000; fill-opacity:1; font-family:Times New Roman,TimesNewRoman,Times,Baskerville,Georgia,serif; font-size:118px; text-anchor:middle;" transform="rotate(0, 2397.44, 1571.62)" x="2397.44" y="1571.62">1.50</text>
</g>
<g clip-path="url(#clip980)">
<text style="fill:#000000; fill-opacity:1; font-family:Times New Roman,TimesNewRoman,Times,Baskerville,Georgia,serif; font-size:118px; text-anchor:middle;" transform="rotate(0, 2397.44, 957.764)" x="2397.44" y="957.764">1.75</text>
</g>
<g clip-path="url(#clip980)">
<text style="fill:#000000; fill-opacity:1; font-family:Times New Roman,TimesNewRoman,Times,Baskerville,Georgia,serif; font-size:118px; text-anchor:middle;" transform="rotate(0, 2397.44, 343.907)" x="2397.44" y="343.907">2.00</text>
</g>
<g clip-path="url(#clip980)">
<text style="fill:#000000; fill-opacity:1; font-family:Times New Roman,TimesNewRoman,Times,Baskerville,Georgia,serif; font-size:118px; text-anchor:middle;" transform="rotate(-90, 2210.92, 1666.51)" x="2210.92" y="1666.51">Computation Time (seconds)</text>
</g>
<path clip-path="url(#clip985)" d="M2838.49 2605.48 L2689.2 2605.48 L2987.78 2605.48 L2838.49 2605.48 L2838.49 2456.12 L2838.49 2605.48  Z" fill="#009af9" fill-rule="evenodd" fill-opacity="0.75"/>
<polyline clip-path="url(#clip985)" style="stroke:#000000; stroke-linecap:round; stroke-linejoin:round; stroke-width:8; stroke-opacity:1; fill:none" points="2838.49,2605.48 2689.2,2605.48 2987.78,2605.48 2838.49,2605.48 2838.49,2456.12 2838.49,2605.48 "/>
<path clip-path="url(#clip985)" d="M3077.35 2456.12 L3077.35 2353.78 L2599.63 2353.78 L2599.63 2456.12 L3077.35 2456.12 L3077.35 2353.78 L3077.35 2456.12  Z" fill="#009af9" fill-rule="evenodd" fill-opacity="0.75"/>
<polyline clip-path="url(#clip985)" style="stroke:#000000; stroke-linecap:round; stroke-linejoin:round; stroke-width:8; stroke-opacity:1; fill:none" points="3077.35,2456.12 3077.35,2353.78 2599.63,2353.78 2599.63,2456.12 3077.35,2456.12 3077.35,2353.78 3077.35,2456.12 "/>
<path clip-path="url(#clip985)" d="M3077.35 2255.08 L2599.63 2255.08 L2599.63 2353.78 L3077.35 2353.78 L3077.35 2255.08 L2838.49 2255.08 L3077.35 2255.08  Z" fill="#009af9" fill-rule="evenodd" fill-opacity="0.75"/>
<polyline clip-path="url(#clip985)" style="stroke:#000000; stroke-linecap:round; stroke-linejoin:round; stroke-width:8; stroke-opacity:1; fill:none" points="3077.35,2255.08 2599.63,2255.08 2599.63,2353.78 3077.35,2353.78 3077.35,2255.08 2838.49,2255.08 3077.35,2255.08 "/>
<path clip-path="url(#clip985)" d="M2838.49 1977.39 L2689.2 1977.39 L2987.78 1977.39 L2838.49 1977.39 L2838.49 2255.08 L2838.49 1977.39  Z" fill="#009af9" fill-rule="evenodd" fill-opacity="0.75"/>
<polyline clip-path="url(#clip985)" style="stroke:#000000; stroke-linecap:round; stroke-linejoin:round; stroke-width:8; stroke-opacity:1; fill:none" points="2838.49,1977.39 2689.2,1977.39 2987.78,1977.39 2838.49,1977.39 2838.49,2255.08 2838.49,1977.39 "/>
<circle clip-path="url(#clip985)" cx="2838.49" cy="1338.33" r="14.4" fill="#009af9" fill-rule="evenodd" fill-opacity="1" stroke="#000000" stroke-opacity="1" stroke-width="7.2"/>
<circle clip-path="url(#clip985)" cx="2838.49" cy="673.567" r="14.4" fill="#009af9" fill-rule="evenodd" fill-opacity="1" stroke="#000000" stroke-opacity="1" stroke-width="7.2"/>
<circle clip-path="url(#clip985)" cx="2838.49" cy="1025.73" r="14.4" fill="#009af9" fill-rule="evenodd" fill-opacity="1" stroke="#000000" stroke-opacity="1" stroke-width="7.2"/>
<circle clip-path="url(#clip985)" cx="2838.49" cy="1734.84" r="14.4" fill="#009af9" fill-rule="evenodd" fill-opacity="1" stroke="#000000" stroke-opacity="1" stroke-width="7.2"/>
<circle clip-path="url(#clip985)" cx="2838.49" cy="138.901" r="14.4" fill="#009af9" fill-rule="evenodd" fill-opacity="1" stroke="#000000" stroke-opacity="1" stroke-width="7.2"/>
<circle clip-path="url(#clip985)" cx="2838.49" cy="629.171" r="14.4" fill="#009af9" fill-rule="evenodd" fill-opacity="1" stroke="#000000" stroke-opacity="1" stroke-width="7.2"/>
<circle clip-path="url(#clip985)" cx="2838.49" cy="1871.21" r="14.4" fill="#009af9" fill-rule="evenodd" fill-opacity="1" stroke="#000000" stroke-opacity="1" stroke-width="7.2"/>
<circle clip-path="url(#clip985)" cx="2838.49" cy="1825.68" r="14.4" fill="#009af9" fill-rule="evenodd" fill-opacity="1" stroke="#000000" stroke-opacity="1" stroke-width="7.2"/>
<circle clip-path="url(#clip985)" cx="2838.49" cy="1777.78" r="14.4" fill="#009af9" fill-rule="evenodd" fill-opacity="1" stroke="#000000" stroke-opacity="1" stroke-width="7.2"/>
<circle clip-path="url(#clip985)" cx="2838.49" cy="1932.97" r="14.4" fill="#009af9" fill-rule="evenodd" fill-opacity="1" stroke="#000000" stroke-opacity="1" stroke-width="7.2"/>
<circle clip-path="url(#clip985)" cx="2838.49" cy="1827.05" r="14.4" fill="#009af9" fill-rule="evenodd" fill-opacity="1" stroke="#000000" stroke-opacity="1" stroke-width="7.2"/>
<circle clip-path="url(#clip985)" cx="2838.49" cy="1747.43" r="14.4" fill="#009af9" fill-rule="evenodd" fill-opacity="1" stroke="#000000" stroke-opacity="1" stroke-width="7.2"/>
<circle clip-path="url(#clip985)" cx="2838.49" cy="890.952" r="14.4" fill="#009af9" fill-rule="evenodd" fill-opacity="1" stroke="#000000" stroke-opacity="1" stroke-width="7.2"/>
<circle clip-path="url(#clip985)" cx="2838.49" cy="843.892" r="14.4" fill="#009af9" fill-rule="evenodd" fill-opacity="1" stroke="#000000" stroke-opacity="1" stroke-width="7.2"/>
<circle clip-path="url(#clip985)" cx="2838.49" cy="749.981" r="14.4" fill="#009af9" fill-rule="evenodd" fill-opacity="1" stroke="#000000" stroke-opacity="1" stroke-width="7.2"/>
<circle clip-path="url(#clip985)" cx="2838.49" cy="897.282" r="14.4" fill="#009af9" fill-rule="evenodd" fill-opacity="1" stroke="#000000" stroke-opacity="1" stroke-width="7.2"/>
<circle clip-path="url(#clip985)" cx="2838.49" cy="951.425" r="14.4" fill="#009af9" fill-rule="evenodd" fill-opacity="1" stroke="#000000" stroke-opacity="1" stroke-width="7.2"/>
<circle clip-path="url(#clip985)" cx="2838.49" cy="1629.26" r="14.4" fill="#009af9" fill-rule="evenodd" fill-opacity="1" stroke="#000000" stroke-opacity="1" stroke-width="7.2"/>
<circle clip-path="url(#clip985)" cx="2838.49" cy="1789.07" r="14.4" fill="#009af9" fill-rule="evenodd" fill-opacity="1" stroke="#000000" stroke-opacity="1" stroke-width="7.2"/>
<circle clip-path="url(#clip985)" cx="2838.49" cy="1750.02" r="14.4" fill="#009af9" fill-rule="evenodd" fill-opacity="1" stroke="#000000" stroke-opacity="1" stroke-width="7.2"/>
<circle clip-path="url(#clip985)" cx="2838.49" cy="1813.88" r="14.4" fill="#009af9" fill-rule="evenodd" fill-opacity="1" stroke="#000000" stroke-opacity="1" stroke-width="7.2"/>
<circle clip-path="url(#clip985)" cx="2838.49" cy="485.165" r="14.4" fill="#009af9" fill-rule="evenodd" fill-opacity="1" stroke="#000000" stroke-opacity="1" stroke-width="7.2"/>
<circle clip-path="url(#clip985)" cx="2838.49" cy="733.965" r="14.4" fill="#009af9" fill-rule="evenodd" fill-opacity="1" stroke="#000000" stroke-opacity="1" stroke-width="7.2"/>
<circle clip-path="url(#clip985)" cx="2838.49" cy="357.52" r="14.4" fill="#009af9" fill-rule="evenodd" fill-opacity="1" stroke="#000000" stroke-opacity="1" stroke-width="7.2"/>
<circle clip-path="url(#clip985)" cx="2838.49" cy="622.632" r="14.4" fill="#009af9" fill-rule="evenodd" fill-opacity="1" stroke="#000000" stroke-opacity="1" stroke-width="7.2"/>
<circle clip-path="url(#clip985)" cx="2838.49" cy="842.041" r="14.4" fill="#009af9" fill-rule="evenodd" fill-opacity="1" stroke="#000000" stroke-opacity="1" stroke-width="7.2"/>
<circle clip-path="url(#clip985)" cx="2838.49" cy="1827.04" r="14.4" fill="#009af9" fill-rule="evenodd" fill-opacity="1" stroke="#000000" stroke-opacity="1" stroke-width="7.2"/>
<circle clip-path="url(#clip985)" cx="2838.49" cy="1555.64" r="14.4" fill="#009af9" fill-rule="evenodd" fill-opacity="1" stroke="#000000" stroke-opacity="1" stroke-width="7.2"/>
<circle clip-path="url(#clip985)" cx="2838.49" cy="588.17" r="14.4" fill="#009af9" fill-rule="evenodd" fill-opacity="1" stroke="#000000" stroke-opacity="1" stroke-width="7.2"/>
<circle clip-path="url(#clip985)" cx="2838.49" cy="798.102" r="14.4" fill="#009af9" fill-rule="evenodd" fill-opacity="1" stroke="#000000" stroke-opacity="1" stroke-width="7.2"/>
<circle clip-path="url(#clip985)" cx="2838.49" cy="787.17" r="14.4" fill="#009af9" fill-rule="evenodd" fill-opacity="1" stroke="#000000" stroke-opacity="1" stroke-width="7.2"/>
<circle clip-path="url(#clip985)" cx="2838.49" cy="871.321" r="14.4" fill="#009af9" fill-rule="evenodd" fill-opacity="1" stroke="#000000" stroke-opacity="1" stroke-width="7.2"/>
<circle clip-path="url(#clip985)" cx="2838.49" cy="846.063" r="14.4" fill="#009af9" fill-rule="evenodd" fill-opacity="1" stroke="#000000" stroke-opacity="1" stroke-width="7.2"/>
<circle clip-path="url(#clip985)" cx="2838.49" cy="808.307" r="14.4" fill="#009af9" fill-rule="evenodd" fill-opacity="1" stroke="#000000" stroke-opacity="1" stroke-width="7.2"/>
<circle clip-path="url(#clip985)" cx="2838.49" cy="722.108" r="14.4" fill="#009af9" fill-rule="evenodd" fill-opacity="1" stroke="#000000" stroke-opacity="1" stroke-width="7.2"/>
<circle clip-path="url(#clip985)" cx="2838.49" cy="1918.9" r="14.4" fill="#009af9" fill-rule="evenodd" fill-opacity="1" stroke="#000000" stroke-opacity="1" stroke-width="7.2"/>
<circle clip-path="url(#clip985)" cx="2838.49" cy="1871.88" r="14.4" fill="#009af9" fill-rule="evenodd" fill-opacity="1" stroke="#000000" stroke-opacity="1" stroke-width="7.2"/>
<circle clip-path="url(#clip985)" cx="2838.49" cy="1056.96" r="14.4" fill="#009af9" fill-rule="evenodd" fill-opacity="1" stroke="#000000" stroke-opacity="1" stroke-width="7.2"/>
<circle clip-path="url(#clip985)" cx="2838.49" cy="1090.46" r="14.4" fill="#009af9" fill-rule="evenodd" fill-opacity="1" stroke="#000000" stroke-opacity="1" stroke-width="7.2"/>
<circle clip-path="url(#clip985)" cx="2838.49" cy="1260.51" r="14.4" fill="#009af9" fill-rule="evenodd" fill-opacity="1" stroke="#000000" stroke-opacity="1" stroke-width="7.2"/>
<circle clip-path="url(#clip985)" cx="2838.49" cy="1914.08" r="14.4" fill="#009af9" fill-rule="evenodd" fill-opacity="1" stroke="#000000" stroke-opacity="1" stroke-width="7.2"/>
<circle clip-path="url(#clip985)" cx="2838.49" cy="1938.64" r="14.4" fill="#009af9" fill-rule="evenodd" fill-opacity="1" stroke="#000000" stroke-opacity="1" stroke-width="7.2"/>
<circle clip-path="url(#clip985)" cx="2838.49" cy="1847.41" r="14.4" fill="#009af9" fill-rule="evenodd" fill-opacity="1" stroke="#000000" stroke-opacity="1" stroke-width="7.2"/>
<circle clip-path="url(#clip985)" cx="2838.49" cy="1924.39" r="14.4" fill="#009af9" fill-rule="evenodd" fill-opacity="1" stroke="#000000" stroke-opacity="1" stroke-width="7.2"/>
<circle clip-path="url(#clip985)" cx="2838.49" cy="1846.37" r="14.4" fill="#009af9" fill-rule="evenodd" fill-opacity="1" stroke="#000000" stroke-opacity="1" stroke-width="7.2"/>
<circle clip-path="url(#clip985)" cx="2838.49" cy="1873.88" r="14.4" fill="#009af9" fill-rule="evenodd" fill-opacity="1" stroke="#000000" stroke-opacity="1" stroke-width="7.2"/>
<circle clip-path="url(#clip985)" cx="2838.49" cy="1075.68" r="14.4" fill="#009af9" fill-rule="evenodd" fill-opacity="1" stroke="#000000" stroke-opacity="1" stroke-width="7.2"/>
<circle clip-path="url(#clip985)" cx="2838.49" cy="1630.8" r="14.4" fill="#009af9" fill-rule="evenodd" fill-opacity="1" stroke="#000000" stroke-opacity="1" stroke-width="7.2"/>
<circle clip-path="url(#clip985)" cx="2838.49" cy="1892.85" r="14.4" fill="#009af9" fill-rule="evenodd" fill-opacity="1" stroke="#000000" stroke-opacity="1" stroke-width="7.2"/>
<circle clip-path="url(#clip985)" cx="2838.49" cy="1893.11" r="14.4" fill="#009af9" fill-rule="evenodd" fill-opacity="1" stroke="#000000" stroke-opacity="1" stroke-width="7.2"/>
<circle clip-path="url(#clip985)" cx="2838.49" cy="1803.2" r="14.4" fill="#009af9" fill-rule="evenodd" fill-opacity="1" stroke="#000000" stroke-opacity="1" stroke-width="7.2"/>
<circle clip-path="url(#clip985)" cx="2838.49" cy="1925.38" r="14.4" fill="#009af9" fill-rule="evenodd" fill-opacity="1" stroke="#000000" stroke-opacity="1" stroke-width="7.2"/>
<circle clip-path="url(#clip985)" cx="2838.49" cy="1937.72" r="14.4" fill="#009af9" fill-rule="evenodd" fill-opacity="1" stroke="#000000" stroke-opacity="1" stroke-width="7.2"/>
<polyline clip-path="url(#clip985)" style="stroke:#009af9; stroke-linecap:round; stroke-linejoin:round; stroke-width:0; stroke-opacity:1; fill:none" points="2838.49,2605.48 2689.2,2605.48 2987.78,2605.48 2838.49,2605.48 2838.49,2456.12 "/>
<polyline clip-path="url(#clip985)" style="stroke:#009af9; stroke-linecap:round; stroke-linejoin:round; stroke-width:0; stroke-opacity:1; fill:none" points="3077.35,2456.12 3077.35,2353.78 2599.63,2353.78 2599.63,2456.12 3077.35,2456.12 3077.35,2353.78 "/>
<polyline clip-path="url(#clip985)" style="stroke:#009af9; stroke-linecap:round; stroke-linejoin:round; stroke-width:0; stroke-opacity:1; fill:none" points="3077.35,2255.08 2599.63,2255.08 2599.63,2353.78 3077.35,2353.78 3077.35,2255.08 2838.49,2255.08 "/>
<polyline clip-path="url(#clip985)" style="stroke:#009af9; stroke-linecap:round; stroke-linejoin:round; stroke-width:0; stroke-opacity:1; fill:none" points="2838.49,1977.39 2689.2,1977.39 2987.78,1977.39 2838.49,1977.39 2838.49,2255.08 "/>
<path clip-path="url(#clip985)" d="M3674.49 3194.12 L3525.2 3194.12 L3823.77 3194.12 L3674.49 3194.12 L3674.49 3048.36 L3674.49 3194.12  Z" fill="#e26f46" fill-rule="evenodd" fill-opacity="0.75"/>
<polyline clip-path="url(#clip985)" style="stroke:#000000; stroke-linecap:round; stroke-linejoin:round; stroke-width:8; stroke-opacity:1; fill:none" points="3674.49,3194.12 3525.2,3194.12 3823.77,3194.12 3674.49,3194.12 3674.49,3048.36 3674.49,3194.12 "/>
<path clip-path="url(#clip985)" d="M3913.34 3048.36 L3913.34 3004.26 L3435.63 3004.26 L3435.63 3048.36 L3913.34 3048.36 L3913.34 3004.26 L3913.34 3048.36  Z" fill="#e26f46" fill-rule="evenodd" fill-opacity="0.75"/>
<polyline clip-path="url(#clip985)" style="stroke:#000000; stroke-linecap:round; stroke-linejoin:round; stroke-width:8; stroke-opacity:1; fill:none" points="3913.34,3048.36 3913.34,3004.26 3435.63,3004.26 3435.63,3048.36 3913.34,3048.36 3913.34,3004.26 3913.34,3048.36 "/>
<path clip-path="url(#clip985)" d="M3913.34 2894.85 L3435.63 2894.85 L3435.63 3004.26 L3913.34 3004.26 L3913.34 2894.85 L3674.49 2894.85 L3913.34 2894.85  Z" fill="#e26f46" fill-rule="evenodd" fill-opacity="0.75"/>
<polyline clip-path="url(#clip985)" style="stroke:#000000; stroke-linecap:round; stroke-linejoin:round; stroke-width:8; stroke-opacity:1; fill:none" points="3913.34,2894.85 3435.63,2894.85 3435.63,3004.26 3913.34,3004.26 3913.34,2894.85 3674.49,2894.85 3913.34,2894.85 "/>
<path clip-path="url(#clip985)" d="M3674.49 2677.37 L3525.2 2677.37 L3823.77 2677.37 L3674.49 2677.37 L3674.49 2894.85 L3674.49 2677.37  Z" fill="#e26f46" fill-rule="evenodd" fill-opacity="0.75"/>
<polyline clip-path="url(#clip985)" style="stroke:#000000; stroke-linecap:round; stroke-linejoin:round; stroke-width:8; stroke-opacity:1; fill:none" points="3674.49,2677.37 3525.2,2677.37 3823.77,2677.37 3674.49,2677.37 3674.49,2894.85 3674.49,2677.37 "/>
<circle clip-path="url(#clip985)" cx="3674.49" cy="2276.75" r="14.4" fill="#e26f46" fill-rule="evenodd" fill-opacity="1" stroke="#000000" stroke-opacity="1" stroke-width="7.2"/>
<circle clip-path="url(#clip985)" cx="3674.49" cy="1230.06" r="14.4" fill="#e26f46" fill-rule="evenodd" fill-opacity="1" stroke="#000000" stroke-opacity="1" stroke-width="7.2"/>
<circle clip-path="url(#clip985)" cx="3674.49" cy="2090.59" r="14.4" fill="#e26f46" fill-rule="evenodd" fill-opacity="1" stroke="#000000" stroke-opacity="1" stroke-width="7.2"/>
<circle clip-path="url(#clip985)" cx="3674.49" cy="1974.79" r="14.4" fill="#e26f46" fill-rule="evenodd" fill-opacity="1" stroke="#000000" stroke-opacity="1" stroke-width="7.2"/>
<circle clip-path="url(#clip985)" cx="3674.49" cy="2583.12" r="14.4" fill="#e26f46" fill-rule="evenodd" fill-opacity="1" stroke="#000000" stroke-opacity="1" stroke-width="7.2"/>
<circle clip-path="url(#clip985)" cx="3674.49" cy="2423.15" r="14.4" fill="#e26f46" fill-rule="evenodd" fill-opacity="1" stroke="#000000" stroke-opacity="1" stroke-width="7.2"/>
<circle clip-path="url(#clip985)" cx="3674.49" cy="1160.17" r="14.4" fill="#e26f46" fill-rule="evenodd" fill-opacity="1" stroke="#000000" stroke-opacity="1" stroke-width="7.2"/>
<circle clip-path="url(#clip985)" cx="3674.49" cy="1686.07" r="14.4" fill="#e26f46" fill-rule="evenodd" fill-opacity="1" stroke="#000000" stroke-opacity="1" stroke-width="7.2"/>
<circle clip-path="url(#clip985)" cx="3674.49" cy="1723.95" r="14.4" fill="#e26f46" fill-rule="evenodd" fill-opacity="1" stroke="#000000" stroke-opacity="1" stroke-width="7.2"/>
<circle clip-path="url(#clip985)" cx="3674.49" cy="1665.3" r="14.4" fill="#e26f46" fill-rule="evenodd" fill-opacity="1" stroke="#000000" stroke-opacity="1" stroke-width="7.2"/>
<circle clip-path="url(#clip985)" cx="3674.49" cy="2460.44" r="14.4" fill="#e26f46" fill-rule="evenodd" fill-opacity="1" stroke="#000000" stroke-opacity="1" stroke-width="7.2"/>
<circle clip-path="url(#clip985)" cx="3674.49" cy="2321.64" r="14.4" fill="#e26f46" fill-rule="evenodd" fill-opacity="1" stroke="#000000" stroke-opacity="1" stroke-width="7.2"/>
<circle clip-path="url(#clip985)" cx="3674.49" cy="2660.35" r="14.4" fill="#e26f46" fill-rule="evenodd" fill-opacity="1" stroke="#000000" stroke-opacity="1" stroke-width="7.2"/>
<circle clip-path="url(#clip985)" cx="3674.49" cy="2044.2" r="14.4" fill="#e26f46" fill-rule="evenodd" fill-opacity="1" stroke="#000000" stroke-opacity="1" stroke-width="7.2"/>
<circle clip-path="url(#clip985)" cx="3674.49" cy="1682.66" r="14.4" fill="#e26f46" fill-rule="evenodd" fill-opacity="1" stroke="#000000" stroke-opacity="1" stroke-width="7.2"/>
<circle clip-path="url(#clip985)" cx="3674.49" cy="1936.42" r="14.4" fill="#e26f46" fill-rule="evenodd" fill-opacity="1" stroke="#000000" stroke-opacity="1" stroke-width="7.2"/>
<circle clip-path="url(#clip985)" cx="3674.49" cy="1761.06" r="14.4" fill="#e26f46" fill-rule="evenodd" fill-opacity="1" stroke="#000000" stroke-opacity="1" stroke-width="7.2"/>
<circle clip-path="url(#clip985)" cx="3674.49" cy="1852.04" r="14.4" fill="#e26f46" fill-rule="evenodd" fill-opacity="1" stroke="#000000" stroke-opacity="1" stroke-width="7.2"/>
<circle clip-path="url(#clip985)" cx="3674.49" cy="1848.32" r="14.4" fill="#e26f46" fill-rule="evenodd" fill-opacity="1" stroke="#000000" stroke-opacity="1" stroke-width="7.2"/>
<circle clip-path="url(#clip985)" cx="3674.49" cy="2030.99" r="14.4" fill="#e26f46" fill-rule="evenodd" fill-opacity="1" stroke="#000000" stroke-opacity="1" stroke-width="7.2"/>
<circle clip-path="url(#clip985)" cx="3674.49" cy="2373.26" r="14.4" fill="#e26f46" fill-rule="evenodd" fill-opacity="1" stroke="#000000" stroke-opacity="1" stroke-width="7.2"/>
<circle clip-path="url(#clip985)" cx="3674.49" cy="2447.2" r="14.4" fill="#e26f46" fill-rule="evenodd" fill-opacity="1" stroke="#000000" stroke-opacity="1" stroke-width="7.2"/>
<circle clip-path="url(#clip985)" cx="3674.49" cy="2474.17" r="14.4" fill="#e26f46" fill-rule="evenodd" fill-opacity="1" stroke="#000000" stroke-opacity="1" stroke-width="7.2"/>
<circle clip-path="url(#clip985)" cx="3674.49" cy="1453.07" r="14.4" fill="#e26f46" fill-rule="evenodd" fill-opacity="1" stroke="#000000" stroke-opacity="1" stroke-width="7.2"/>
<circle clip-path="url(#clip985)" cx="3674.49" cy="1539.95" r="14.4" fill="#e26f46" fill-rule="evenodd" fill-opacity="1" stroke="#000000" stroke-opacity="1" stroke-width="7.2"/>
<circle clip-path="url(#clip985)" cx="3674.49" cy="1586.73" r="14.4" fill="#e26f46" fill-rule="evenodd" fill-opacity="1" stroke="#000000" stroke-opacity="1" stroke-width="7.2"/>
<circle clip-path="url(#clip985)" cx="3674.49" cy="1658.83" r="14.4" fill="#e26f46" fill-rule="evenodd" fill-opacity="1" stroke="#000000" stroke-opacity="1" stroke-width="7.2"/>
<circle clip-path="url(#clip985)" cx="3674.49" cy="1363.78" r="14.4" fill="#e26f46" fill-rule="evenodd" fill-opacity="1" stroke="#000000" stroke-opacity="1" stroke-width="7.2"/>
<circle clip-path="url(#clip985)" cx="3674.49" cy="1770.72" r="14.4" fill="#e26f46" fill-rule="evenodd" fill-opacity="1" stroke="#000000" stroke-opacity="1" stroke-width="7.2"/>
<circle clip-path="url(#clip985)" cx="3674.49" cy="1286.2" r="14.4" fill="#e26f46" fill-rule="evenodd" fill-opacity="1" stroke="#000000" stroke-opacity="1" stroke-width="7.2"/>
<circle clip-path="url(#clip985)" cx="3674.49" cy="2268.87" r="14.4" fill="#e26f46" fill-rule="evenodd" fill-opacity="1" stroke="#000000" stroke-opacity="1" stroke-width="7.2"/>
<circle clip-path="url(#clip985)" cx="3674.49" cy="2523.08" r="14.4" fill="#e26f46" fill-rule="evenodd" fill-opacity="1" stroke="#000000" stroke-opacity="1" stroke-width="7.2"/>
<circle clip-path="url(#clip985)" cx="3674.49" cy="2592.9" r="14.4" fill="#e26f46" fill-rule="evenodd" fill-opacity="1" stroke="#000000" stroke-opacity="1" stroke-width="7.2"/>
<circle clip-path="url(#clip985)" cx="3674.49" cy="1618.63" r="14.4" fill="#e26f46" fill-rule="evenodd" fill-opacity="1" stroke="#000000" stroke-opacity="1" stroke-width="7.2"/>
<circle clip-path="url(#clip985)" cx="3674.49" cy="1626.19" r="14.4" fill="#e26f46" fill-rule="evenodd" fill-opacity="1" stroke="#000000" stroke-opacity="1" stroke-width="7.2"/>
<circle clip-path="url(#clip985)" cx="3674.49" cy="1667.01" r="14.4" fill="#e26f46" fill-rule="evenodd" fill-opacity="1" stroke="#000000" stroke-opacity="1" stroke-width="7.2"/>
<circle clip-path="url(#clip985)" cx="3674.49" cy="1514.67" r="14.4" fill="#e26f46" fill-rule="evenodd" fill-opacity="1" stroke="#000000" stroke-opacity="1" stroke-width="7.2"/>
<circle clip-path="url(#clip985)" cx="3674.49" cy="1752.74" r="14.4" fill="#e26f46" fill-rule="evenodd" fill-opacity="1" stroke="#000000" stroke-opacity="1" stroke-width="7.2"/>
<circle clip-path="url(#clip985)" cx="3674.49" cy="1803.93" r="14.4" fill="#e26f46" fill-rule="evenodd" fill-opacity="1" stroke="#000000" stroke-opacity="1" stroke-width="7.2"/>
<circle clip-path="url(#clip985)" cx="3674.49" cy="1820.55" r="14.4" fill="#e26f46" fill-rule="evenodd" fill-opacity="1" stroke="#000000" stroke-opacity="1" stroke-width="7.2"/>
<circle clip-path="url(#clip985)" cx="3674.49" cy="1819.97" r="14.4" fill="#e26f46" fill-rule="evenodd" fill-opacity="1" stroke="#000000" stroke-opacity="1" stroke-width="7.2"/>
<circle clip-path="url(#clip985)" cx="3674.49" cy="1788.42" r="14.4" fill="#e26f46" fill-rule="evenodd" fill-opacity="1" stroke="#000000" stroke-opacity="1" stroke-width="7.2"/>
<circle clip-path="url(#clip985)" cx="3674.49" cy="1848.89" r="14.4" fill="#e26f46" fill-rule="evenodd" fill-opacity="1" stroke="#000000" stroke-opacity="1" stroke-width="7.2"/>
<circle clip-path="url(#clip985)" cx="3674.49" cy="1871.77" r="14.4" fill="#e26f46" fill-rule="evenodd" fill-opacity="1" stroke="#000000" stroke-opacity="1" stroke-width="7.2"/>
<circle clip-path="url(#clip985)" cx="3674.49" cy="1803.83" r="14.4" fill="#e26f46" fill-rule="evenodd" fill-opacity="1" stroke="#000000" stroke-opacity="1" stroke-width="7.2"/>
<circle clip-path="url(#clip985)" cx="3674.49" cy="1658.03" r="14.4" fill="#e26f46" fill-rule="evenodd" fill-opacity="1" stroke="#000000" stroke-opacity="1" stroke-width="7.2"/>
<circle clip-path="url(#clip985)" cx="3674.49" cy="1867.92" r="14.4" fill="#e26f46" fill-rule="evenodd" fill-opacity="1" stroke="#000000" stroke-opacity="1" stroke-width="7.2"/>
<circle clip-path="url(#clip985)" cx="3674.49" cy="2579.45" r="14.4" fill="#e26f46" fill-rule="evenodd" fill-opacity="1" stroke="#000000" stroke-opacity="1" stroke-width="7.2"/>
<circle clip-path="url(#clip985)" cx="3674.49" cy="2090.69" r="14.4" fill="#e26f46" fill-rule="evenodd" fill-opacity="1" stroke="#000000" stroke-opacity="1" stroke-width="7.2"/>
<circle clip-path="url(#clip985)" cx="3674.49" cy="2036.04" r="14.4" fill="#e26f46" fill-rule="evenodd" fill-opacity="1" stroke="#000000" stroke-opacity="1" stroke-width="7.2"/>
<circle clip-path="url(#clip985)" cx="3674.49" cy="2124.08" r="14.4" fill="#e26f46" fill-rule="evenodd" fill-opacity="1" stroke="#000000" stroke-opacity="1" stroke-width="7.2"/>
<circle clip-path="url(#clip985)" cx="3674.49" cy="2613.61" r="14.4" fill="#e26f46" fill-rule="evenodd" fill-opacity="1" stroke="#000000" stroke-opacity="1" stroke-width="7.2"/>
<circle clip-path="url(#clip985)" cx="3674.49" cy="1919.63" r="14.4" fill="#e26f46" fill-rule="evenodd" fill-opacity="1" stroke="#000000" stroke-opacity="1" stroke-width="7.2"/>
<circle clip-path="url(#clip985)" cx="3674.49" cy="2175.08" r="14.4" fill="#e26f46" fill-rule="evenodd" fill-opacity="1" stroke="#000000" stroke-opacity="1" stroke-width="7.2"/>
<circle clip-path="url(#clip985)" cx="3674.49" cy="2646.06" r="14.4" fill="#e26f46" fill-rule="evenodd" fill-opacity="1" stroke="#000000" stroke-opacity="1" stroke-width="7.2"/>
<circle clip-path="url(#clip985)" cx="3674.49" cy="2656.58" r="14.4" fill="#e26f46" fill-rule="evenodd" fill-opacity="1" stroke="#000000" stroke-opacity="1" stroke-width="7.2"/>
<circle clip-path="url(#clip985)" cx="3674.49" cy="2617.97" r="14.4" fill="#e26f46" fill-rule="evenodd" fill-opacity="1" stroke="#000000" stroke-opacity="1" stroke-width="7.2"/>
<circle clip-path="url(#clip985)" cx="3674.49" cy="2594.46" r="14.4" fill="#e26f46" fill-rule="evenodd" fill-opacity="1" stroke="#000000" stroke-opacity="1" stroke-width="7.2"/>
<circle clip-path="url(#clip985)" cx="3674.49" cy="2663.57" r="14.4" fill="#e26f46" fill-rule="evenodd" fill-opacity="1" stroke="#000000" stroke-opacity="1" stroke-width="7.2"/>
<circle clip-path="url(#clip985)" cx="3674.49" cy="2623" r="14.4" fill="#e26f46" fill-rule="evenodd" fill-opacity="1" stroke="#000000" stroke-opacity="1" stroke-width="7.2"/>
<polyline clip-path="url(#clip985)" style="stroke:#e26f46; stroke-linecap:round; stroke-linejoin:round; stroke-width:0; stroke-opacity:1; fill:none" points="3674.49,3194.12 3525.2,3194.12 3823.77,3194.12 3674.49,3194.12 3674.49,3048.36 "/>
<polyline clip-path="url(#clip985)" style="stroke:#e26f46; stroke-linecap:round; stroke-linejoin:round; stroke-width:0; stroke-opacity:1; fill:none" points="3913.34,3048.36 3913.34,3004.26 3435.63,3004.26 3435.63,3048.36 3913.34,3048.36 3913.34,3004.26 "/>
<polyline clip-path="url(#clip985)" style="stroke:#e26f46; stroke-linecap:round; stroke-linejoin:round; stroke-width:0; stroke-opacity:1; fill:none" points="3913.34,2894.85 3435.63,2894.85 3435.63,3004.26 3913.34,3004.26 3913.34,2894.85 3674.49,2894.85 "/>
<polyline clip-path="url(#clip985)" style="stroke:#e26f46; stroke-linecap:round; stroke-linejoin:round; stroke-width:0; stroke-opacity:1; fill:none" points="3674.49,2677.37 3525.2,2677.37 3823.77,2677.37 3674.49,2677.37 3674.49,2894.85 "/>
</svg>
